<?xml version="1.0" standalone="no"?>
<!DOCTYPE svg PUBLIC "-//W3C//DTD SVG 1.1//EN" "http://www.w3.org/Graphics/SVG/1.1/DTD/svg11.dtd" >
<svg xmlns="http://www.w3.org/2000/svg" xmlns:xlink="http://www.w3.org/1999/xlink" version="1.1">
<metadata>
Created by FontForge 20170731 at Sun Apr  5 05:50:35 2015
 By Aleksey,,,
This rendition (C) 1998 Andrew C. Bul+hac?k. Freely distributable.
</metadata>
<defs>
<font id="ModeSeven" horiz-adv-x="600" >
  <font-face 
    font-family="ModeSeven"
    font-weight="400"
    font-stretch="normal"
    units-per-em="1000"
    panose-1="0 0 4 9 0 0 0 0 0 0"
    ascent="800"
    descent="-200"
    x-height="500"
    cap-height="700"
    bbox="-10 -200 610 806"
    underline-thickness="20"
    underline-position="-263"
    unicode-range="U+0001-E37F"
  />
<missing-glyph 
d="M100 0v800h500v-800h-500zM200 100h300v600h-300v-600z" />
    <glyph glyph-name=".notdef" 
d="M100 0v800h500v-800h-500zM200 100h300v600h-300v-600z" />
    <glyph glyph-name=".null" horiz-adv-x="720" 
 />
    <glyph glyph-name="nonmarkingreturn" horiz-adv-x="720" 
 />
    <glyph glyph-name="uni0000" 
 />
    <glyph glyph-name="uni0000" 
 />
    <glyph glyph-name="uni0001" 
 />
    <glyph glyph-name="uni0002" 
 />
    <glyph glyph-name="uni0003" 
 />
    <glyph glyph-name="uni0004" 
 />
    <glyph glyph-name="uni0005" 
 />
    <glyph glyph-name="uni0006" 
 />
    <glyph glyph-name="uni0007" 
 />
    <glyph glyph-name="uni0008" 
 />
    <glyph glyph-name="uni0009" unicode="&#x9;" 
 />
    <glyph glyph-name="uni000A" unicode="&#xa;" 
 />
    <glyph glyph-name="uni000B" 
 />
    <glyph glyph-name="uni000C" 
 />
    <glyph glyph-name="uni000D" unicode="&#xd;" 
 />
    <glyph glyph-name="uni000E" 
 />
    <glyph glyph-name="uni000F" 
 />
    <glyph glyph-name="uni0010" 
 />
    <glyph glyph-name="uni0011" 
 />
    <glyph glyph-name="uni0012" 
 />
    <glyph glyph-name="uni0013" 
 />
    <glyph glyph-name="uni0014" 
 />
    <glyph glyph-name="uni0015" 
 />
    <glyph glyph-name="uni0016" 
 />
    <glyph glyph-name="uni0017" 
 />
    <glyph glyph-name="uni0018" 
 />
    <glyph glyph-name="uni0019" 
 />
    <glyph glyph-name="uni001A" 
 />
    <glyph glyph-name="uni001B" 
 />
    <glyph glyph-name="uni001C" 
 />
    <glyph glyph-name="uni001D" 
 />
    <glyph glyph-name="uni001E" 
 />
    <glyph glyph-name="uni001F" 
 />
    <glyph glyph-name="space" unicode=" " 
 />
    <glyph glyph-name="exclam" unicode="!" 
d="M400 200h-100v500h100v-500zM400 0h-100v100h100v-100z" />
    <glyph glyph-name="quotedbl" unicode="&#x22;" 
d="M500 400h-100v300h100v-300zM300 400h-100v300h100v-300z" />
    <glyph glyph-name="numbersign" unicode="#" 
d="M300 300h100v100h-100v-100zM600 200h-100v-200h-100v200h-100v-200h-100v200h-100v100h100v100h-100v100h100v200h100v-200h100v200h100v-200h100v-100h-100v-100h100v-100z" />
    <glyph glyph-name="dollar" unicode="$" 
d="M600 100h-50v-50h-50v-50h-300v50h-50v50h-50v100h100v-50h50v-50h50v200h-100v50h-50v50h-50v200h50v50h50v50h300v-50h50v-50h50v-100h-100v50h-50v50h-50v-200h100v-50h50v-50h50v-200zM300 400v200h-50v-50h-50v-100h50v-50h50zM500 150v100h-50v50h-50v-200h50v50
h50z" />
    <glyph glyph-name="percent" unicode="%" 
d="M500 600h100v-100h-50v-50h-50v-50h-50v-50h-50v-50h-50v-50h-50v-50h-50v-50h-50v-50h-100v100h50v50h50v50h50v50h50v50h50v50h50v50h50v50h50v50zM100 700h200v-200h-200v200zM600 200v-200h-200v200h200z" />
    <glyph glyph-name="ampersand" unicode="&#x26;" 
d="M350 100v100h-50v50h-100v-100h50v-50h100zM300 550h-100v-100h100v100zM500 300h100v-100h-50v-100h50v-100h-100v50h-100v-50h-200v50h-50v50h-50v200h50v100h-50v200h50v50h50v50h100v-50h50v-50h50v-200h-50v-100h50v-50h100v50z" />
    <glyph glyph-name="quotesingle" unicode="'" 
d="M300 700h100v-300h-100v300z" />
    <glyph glyph-name="parenleft" unicode="(" 
d="M400 700h100v-100h-50v-50h-50v-50h-50v-50h-50v-200h50v-50h50v-50h50v-50h50v-100h-100v50h-50v50h-50v50h-50v50h-50v300h50v50h50v50h50v50h50v50z" />
    <glyph glyph-name="parenright" unicode=")" 
d="M500 200h-50v-50h-50v-50h-50v-50h-50v-50h-100v100h50v50h50v50h50v50h50v200h-50v50h-50v50h-50v50h-50v100h100v-50h50v-50h50v-50h50v-50h50v-300z" />
    <glyph glyph-name="asterisk" unicode="*" 
d="M600 100h-100v50h-50v50h-50v-200h-100v200h-50v-50h-50v-50h-100v100h50v50h50v50h100v100h-100v50h-50v50h-50v100h100v-50h50v-50h50v200h100v-200h50v50h50v50h100v-100h-50v-50h-50v-50h-100v-100h100v-50h50v-50h50v-100z" />
    <glyph glyph-name="plus" unicode="+" 
d="M600 300h-200v-200h-100v200h-200v100h200v200h100v-200h200v-100z" />
    <glyph glyph-name="comma" unicode="," 
d="M200 0h50v50h50v150h100v-200h-50v-50h-50v-50h-100v100z" />
    <glyph glyph-name="hyphen" unicode="-" 
d="M500 300h-300v100h300v-100z" />
    <glyph glyph-name="hyphen" unicode="&#x2010;" 
d="M500 300h-300v100h300v-100z" />
    <glyph glyph-name="period" unicode="." 
d="M300 100h100v-100h-100v100z" />
    <glyph glyph-name="slash" unicode="/" 
d="M600 500h-50v-50h-50v-50h-50v-50h-50v-50h-50v-50h-50v-50h-50v-50h-50v-50h-100v100h50v50h50v50h50v50h50v50h50v50h50v50h50v50h50v50h100v-100z" />
    <glyph glyph-name="zero" unicode="0" 
d="M450 500h-50v50h-100v-50h-50v-50h-50v-200h50v-50h50v-50h100v50h50v50h50v200h-50v50zM450 600h50v-50h50v-50h50v-300h-50v-50h-50v-50h-50v-50h-50v-50h-100v50h-50v50h-50v50h-50v50h-50v300h50v50h50v50h50v50h50v50h100v-50h50v-50z" />
    <glyph glyph-name="one" unicode="1" 
d="M300 600v100h100v-600h100v-100h-300v100h100v400h-100v100h100z" />
    <glyph glyph-name="two" unicode="2" 
d="M150 650h50v50h300v-50h50v-50h50v-200h-50v-50h-50v-50h-150v-50h-50v-50h-50v-50h-50v-50h400v-100h-500v200h50v50h50v50h50v50h50v50h150v50h50v100h-50v50h-200v-50h-50v-50h-100v100h50v50z" />
    <glyph glyph-name="three" unicode="3" 
d="M600 100h-50v-50h-50v-50h-300v50h-50v50h-50v100h100v-50h50v-50h200v50h50v100h-50v50h-150v100h100v100h50v50h50v50h-400v100h500v-200h-50v-50h-50v-100h50v-50h50v-200z" />
    <glyph glyph-name="four" unicode="4" 
d="M400 500h-50v-50h-50v-50h-50v-50h-50v-50h200v200zM400 600v100h100v-400h100v-100h-100v-200h-100v200h-300v200h50v50h50v50h50v50h50v50h100z" />
    <glyph glyph-name="five" unicode="5" 
d="M600 700v-100h-400v-100h300v-50h50v-50h50v-300h-50v-50h-50v-50h-300v50h-50v50h-50v100h100v-50h50v-50h200v50h50v200h-50v50h-350v300h500z" />
    <glyph glyph-name="six" unicode="6" 
d="M600 100h-50v-50h-50v-50h-300v50h-50v50h-50v400h50v50h50v50h50v50h50v50h200v-100h-150v-50h-50v-50h-50v-50h-50v-50h300v-50h50v-50h50v-200zM500 150v100h-50v50h-250v-150h50v-50h200v50h50z" />
    <glyph glyph-name="seven" unicode="7" 
d="M600 500h-50v-50h-50v-50h-50v-50h-50v-50h-50v-50h-50v-250h-100v300h50v50h50v50h50v50h50v50h50v50h50v50h-400v100h500v-200z" />
    <glyph glyph-name="eight" unicode="8" 
d="M600 100h-50v-50h-50v-50h-300v50h-50v50h-50v200h50v100h-50v200h50v50h50v50h300v-50h50v-50h50v-200h-50v-100h50v-200zM500 450v100h-50v50h-200v-50h-50v-100h50v-50h200v50h50zM500 150v100h-50v50h-200v-50h-50v-100h50v-50h200v50h50z" />
    <glyph glyph-name="nine" unicode="9" 
d="M500 300h-300v50h-50v50h-50v200h50v50h50v50h300v-50h50v-50h50v-400h-50v-50h-50v-50h-50v-50h-50v-50h-200v100h150v50h50v50h50v50h50v50zM250 400h250v150h-50v50h-200v-50h-50v-100h50v-50z" />
    <glyph glyph-name="colon" unicode=":" 
d="M400 400h-100v100h100v-100zM400 0h-100v100h100v-100z" />
    <glyph glyph-name="semicolon" unicode=";" 
d="M400 400h-100v100h100v-100zM400 0h-50v-50h-50v-50h-100v100h50v50h50v150h100v-200z" />
    <glyph glyph-name="less" unicode="&#x3c;" 
d="M500 0h-100v50h-50v50h-50v50h-50v50h-50v50h-50v50h-50v100h50v50h50v50h50v50h50v50h50v50h50v50h100v-100h-50v-50h-50v-50h-50v-50h-50v-50h-50v-100h50v-50h50v-50h50v-50h50v-50h50v-100z" />
    <glyph glyph-name="equal" unicode="=" 
d="M600 400h-500v100h500v-100zM600 200h-500v100h500v-100z" />
    <glyph glyph-name="greater" unicode="&#x3e;" 
d="M600 300h-50v-50h-50v-50h-50v-50h-50v-50h-50v-50h-50v-50h-100v100h50v50h50v50h50v50h50v50h50v100h-50v50h-50v50h-50v50h-50v50h-50v100h100v-50h50v-50h50v-50h50v-50h50v-50h50v-50h50v-100z" />
    <glyph glyph-name="question" unicode="?" 
d="M300 400h50v50h50v50h50v100h-200v-50h-50v-50h-100v100h50v50h50v50h300v-50h50v-50h50v-100h-50v-50h-50v-50h-50v-50h-50v-150h-100v200zM300 100h100v-100h-100v100z" />
    <glyph glyph-name="at" unicode="@" 
d="M500 400h-100v-100h100v100zM500 500v50h-50v50h-200v-50h-50v-400h50v-50h250v-100h-300v50h-50v50h-50v500h50v50h50v50h300v-50h50v-50h50v-400h-300v300h200z" />
    <glyph glyph-name="A" unicode="A" 
d="M200 450v-150h300v150h-50v50h-50v50h-100v-50h-50v-50h-50zM600 0h-100v200h-300v-200h-100v500h50v50h50v50h50v50h50v50h100v-50h50v-50h50v-50h50v-50h50v-500z" />
    <glyph glyph-name="B" unicode="B" 
d="M500 450v100h-50v50h-250v-200h250v50h50zM500 50v-50h-400v700h400v-50h50v-50h50v-200h-50v-100h50v-200h-50v-50h-50zM450 100v50h50v100h-50v50h-250v-200h250z" />
    <glyph glyph-name="C" unicode="C" 
d="M500 650h50v-50h50v-100h-100v50h-50v50l-200 -2v-48h-50v-400h50v-50h200v50h50v50h100v-100h-50v-50h-50v-50h-300v50h-50v50h-50v500h50v50h50v50h300v-50z" />
    <glyph glyph-name="D" unicode="D" 
d="M450 150h50v400h-50v50h-250v-500h250v50zM500 650h50v-50h50v-500h-50v-50h-50v-50h-400v700h400v-50z" />
    <glyph glyph-name="E" unicode="E" 
d="M600 0h-500v700h500v-100h-400v-200h300v-100h-300v-200h400v-100z" />
    <glyph glyph-name="F" unicode="F" 
d="M600 600h-400v-200h300v-100h-300v-300h-100v700h500v-100z" />
    <glyph glyph-name="G" unicode="G" 
d="M200 200h50v-50h50v-50h200v100h-100v100h200v-300h-400v50h-50v50h-50v500h50v50h50v50h300v-50h50v-50h50v-100h-100v50h-50v50h-200v-50h-50v-350z" />
    <glyph glyph-name="H" unicode="H" 
d="M600 0h-100v300h-300v-300h-100v700h100v-300h300v300h100v-700z" />
    <glyph glyph-name="I" unicode="I" 
d="M400 600v-500h100v-100h-300v100h100v500h-100v100h300v-100h-100z" />
    <glyph glyph-name="J" unicode="J" 
d="M500 700h100v-600h-50v-50h-50v-50h-300v50h-50v50h-50v100h100v-50h50v-50h200v50h50v550z" />
    <glyph glyph-name="K" unicode="K" 
d="M500 150h50v-50h50v-100h-100v50h-50v50h-50v50h-50v50h-50v50h-50v50h-50v-300h-100v700h100v-300h50v50h50v50h50v50h50v50h50v50h50v50h100v-100h-50v-50h-50v-50h-50v-50h-50v-50h-50v-100h50v-50h50v-50h50v-50z" />
    <glyph glyph-name="L" unicode="L" 
d="M600 0h-500v700h100v-600h400v-100z" />
    <glyph glyph-name="M" unicode="M" 
d="M500 700h100v-700h-100v500h-50v-50h-50v-150h-100v150h-50v50h-50v-500h-100v700h100v-100h100v-50h100v50h100v100z" />
    <glyph glyph-name="N" unicode="N" 
d="M600 0h-100l-1 200h-99v50h-50v50h-50v50h-50v50h-50v-400h-100v700h100v-200h100v-50h50v-50h50v-50h50v-50h50v400h100v-700z" />
    <glyph glyph-name="O" unicode="O" 
d="M200 50h-50v50h-50v500h50v50h50v50h300v-50h50v-50h50v-500h-50v-50h-50v-50h-300v50zM200 150h50v-50h200v50h50v400h-50v50h-200v-50h-50v-400z" />
    <glyph glyph-name="P" unicode="P" 
d="M450 600h-250v-200h250v50h50v100h-50v50zM500 700v-50h50v-50h50v-200h-50v-50h-50v-50h-300v-300h-100v700h400z" />
    <glyph glyph-name="Q" unicode="Q" 
d="M550 200v-100h50v-100h-100v50h-100v-50h-200v50h-50v50h-50v500h50v50h50v50h300v-50h50v-50h50v-400h-50zM500 550h-50v50h-200v-50h-50v-400h50v-50h100v100h-50v100h100v-50h100v300z" />
    <glyph glyph-name="R" unicode="R" 
d="M200 400h250v50h50v100h-50v50h-250v-200zM550 100h50v-100h-100v50h-50v50h-50v50h-50v50h-50v99l-100 1v-300h-100v700h400v-50h50v-50h50v-200h-50v-50h-50v-50h-100v-50h50v-50h50v-50h50v-50z" />
    <glyph glyph-name="S" unicode="S" 
d="M200 150h50v-50h200v50h50v100h-50v50h-250v50h-50v50h-50v200h50v50h50v50h300v-50h50v-50h50v-100h-100v50h-50v50h-200v-50h-50v-100h50v-50h250v-50h50v-50h50v-200h-50v-50h-50v-50h-300v50h-50v50h-50v100h100v-50z" />
    <glyph glyph-name="T" unicode="T" 
d="M400 0h-100v600h-200v100h500v-100h-200v-600z" />
    <glyph glyph-name="U" unicode="U" 
d="M500 700h100v-600h-50v-50h-50v-50h-300v50h-50v50h-50v600h100v-550h50v-50h200v50h50v550z" />
    <glyph glyph-name="V" unicode="V" 
d="M500 700h100v-300h-50v-50h-50v-150h-50v-50h-50v-150h-100v150h-50v50h-50v150h-50v50h-50v300h100v-250h50v-50h50v-150h100v150h50v50h50v250z" />
    <glyph glyph-name="W" unicode="W" 
d="M400 150h100v550h100v-600h-50v-50h-50v-50h-100v50h-100v-50h-100v50h-50v50h-50v600h100v-550h100v250h100v-250z" />
    <glyph glyph-name="X" unicode="X" 
d="M450 300h50v-50h50v-50h50v-200h-100v150h-50v50h-50v50h-100v-50h-50v-50h-50v-150h-100v200h50v50h50v50h50v100h-50v50h-50v50h-50v200h100v-150h50v-50h50v-50h100v50h50v50h50v150h100v-200h-50v-50h-50v-50h-50v-100z" />
    <glyph glyph-name="Y" unicode="Y" 
d="M400 350v-350h-100v350h-50v50h-50v50h-50v50h-50v200h100v-150h50v-50h50v-50h100v50h50v50h50v150h100v-200h-50v-50h-50v-50h-50v-50h-50z" />
    <glyph glyph-name="Z" unicode="Z" 
d="M600 500h-50v-50h-50v-50h-50v-50h-50v-50h-50v-50h-50v-50h-50v-50h-50v-50h400v-100h-500v200h50v50h50v50h50v50h50v50h50v50h50v50h50v50h50v50h-400v100h500v-200z" />
    <glyph glyph-name="bracketleft" unicode="[" 
d="M300 100v50h-50v50h-50v100h-100v100h100v100h50v50h50v50h100v-100h-50v-50h-50v-50h300v-100h-300v-50h50v-50h50v-100h-100z" />
    <glyph glyph-name="backslash" unicode="\" 
d="M200 600v-50h50v-50h50v-50h50v-50h50v-50h50v-50h50v-50h50v-50h50v-100h-100v50h-50v50h-50v50h-50v50h-50v50h-50v50h-50v50h-50v50h-50v100h100z" />
    <glyph glyph-name="bracketright" unicode="]" 
d="M600 300h-100v-100h-50v-50h-50v-50h-100v100h50v50h50v50h-300v100h300v50h-50v50h-50v100h100v-50h50v-50h50v-100h100v-100z" />
    <glyph glyph-name="asciicircum" unicode="^" 
d="M500 450h50v-50h50v-100h-100v50h-50v50h-50v-300h-100v300h-50v-50h-50v-50h-100v100h50v50h50v50h100v100h100v-100h100v-50z" />
    <glyph glyph-name="underscore" unicode="_" 
d="M100 0h500v-100h-500v100z" />
    <glyph glyph-name="grave" unicode="`" 
d="M100 400h500v-100h-500v100z" />
    <glyph glyph-name="a" unicode="a" 
d="M250 200v-100h250v100h-250zM150 250h50v50h300v50h-50v50h-250v100h300v-50h50v-50h50v-400h-400v50h-50v50h-50v100h50v50z" />
    <glyph glyph-name="b" unicode="b" 
d="M450 400h-250v-300h250v50h50v200h-50v50zM200 500h300v-50h50v-50h50v-300h-50v-50h-50v-50h-400v700h100v-200z" />
    <glyph glyph-name="c" unicode="c" 
d="M250 100h350v-100h-400v50h-50v50h-50v300h50v50h50v50h400v-100h-350v-50h-50v-200h50v-50z" />
    <glyph glyph-name="d" unicode="d" 
d="M500 400h-250v-50h-50v-200h50v-50h250v300zM200 500h300v200h100v-700h-400v50h-50v50h-50v300h50v50h50v50z" />
    <glyph glyph-name="e" unicode="e" 
d="M250 400v-50h-50v-50h300v50h-50v50h-200zM150 450h50v50h300v-50h50v-50h50v-200h-400v-50h50v-50h250v-100h-300v50h-50v50h-50v300h50v50z" />
    <glyph glyph-name="f" unicode="f" 
d="M200 400h100v200h50v50h50v50h100v-100h-50v-50h-50v-150h100v-100h-100v-300h-100v300h-100v100z" />
    <glyph glyph-name="g" unicode="g" 
d="M500 400h-250v-50h-50v-200h50v-50h250v300zM200 500h400v-600h-50v-50h-50v-50h-300v100h250v50h50v50h-300v50h-50v50h-50v300h50v50h50v50z" />
    <glyph glyph-name="h" unicode="h" 
d="M200 500h300v-50h50v-50h50v-400h-100v350h-50v50h-250v-400h-100v700h100v-200z" />
    <glyph glyph-name="i" unicode="i" 
d="M300 700h100v-100h-100v100zM200 100h100v300h-100v100h200v-400h100v-100h-300v100z" />
    <glyph glyph-name="j" unicode="j" 
d="M300 700h100v-100h-100v100zM250 -50h50v550h100v-600h-50v-50h-50v-50h-100v100h50v50z" />
    <glyph glyph-name="k" unicode="k" 
d="M300 300h50v50h50v50h50v50h50v50h100v-100h-50v-50h-50v-50h-50v-100h50v-50h50v-50h50v-100h-100v50h-50v50h-50v50h-50v50h-50v-200h-100v700h100v-400z" />
    <glyph glyph-name="l" unicode="l" 
d="M200 700h200v-600h100v-100h-300v100h100v500h-100v100z" />
    <glyph glyph-name="m" unicode="m" 
d="M400 350v-350h-100v350h-50v50h-50v-400h-100v500h200v-50h100v50h100v-50h50v-50h50v-400h-100v350h-100z" />
    <glyph glyph-name="n" unicode="n" 
d="M200 0h-100v500h400v-50h50v-50h50v-400h-100v350h-50v50h-250v-400z" />
    <glyph glyph-name="o" unicode="o" 
d="M250 400v-50h-50v-200h50v-50h200v50h50v200h-50v50h-200zM150 450h50v50h300v-50h50v-50h50v-300h-50v-50h-50v-50h-300v50h-50v50h-50v300h50v50z" />
    <glyph glyph-name="p" unicode="p" 
d="M500 50v-50h-300v-200h-100v700h400v-50h50v-50h50v-300h-50v-50h-50zM200 100h250v50h50v200h-50v50h-250v-300z" />
    <glyph glyph-name="q" unicode="q" 
d="M600 -200h-100v200h-300v50h-50v50h-50v300h50v50h50v50h400v-700zM500 100v300h-250v-50h-50v-200h50v-50h250z" />
    <glyph glyph-name="r" unicode="r" 
d="M300 0h-100v500h100v-100h50v50h50v50h200v-100h-150v-50h-50v-50h-100v-300z" />
    <glyph glyph-name="s" unicode="s" 
d="M200 500h400v-100h-350v-100h250v-50h50v-50h50v-100h-50v-50h-50v-50h-400v100h350v100h-250v50h-50v50h-50v100h50v50h50v50z" />
    <glyph glyph-name="t" unicode="t" 
d="M400 150h50v-50h50v-100h-100v50h-50v50h-50v300h-100v100h100v200h100v-200h100v-100h-100v-250z" />
    <glyph glyph-name="u" unicode="u" 
d="M500 500h100v-500h-400v50h-50v50h-50v400h100v-350h50v-50h250v400z" />
    <glyph glyph-name="v" unicode="v" 
d="M500 500h100v-200h-50v-50h-50v-150h-50v-50h-50v-50h-100v50h-50v50h-50v150h-50v50h-50v200h100v-150h50v-50h50v-150h100v150h50v50h50v150z" />
    <glyph glyph-name="w" unicode="w" 
d="M500 50v-50h-100v50h-100v-50h-100v50h-50v50h-50v400h100v-350h100v150h100v-150h100v350h100v-400h-50v-50h-50z" />
    <glyph glyph-name="x" unicode="x" 
d="M550 100h50v-100h-100v50h-50v50h-50v50h-100v-50h-50v-50h-50v-50h-100v100h50v50h50v50h50v100h-50v50h-50v50h-50v100h100v-50h50v-50h50v-50h100v50h50v50h50v50h100v-100h-50v-50h-50v-50h-50v-100h50v-50h50v-50z" />
    <glyph glyph-name="y" unicode="y" 
d="M450 -50h50v50h-300v50h-50v50h-50v400h100v-350h50v-50h250v400h100v-600h-50v-50h-50v-50h-300v100h250v50z" />
    <glyph glyph-name="z" unicode="z" 
d="M500 400v-100h-50v-50h-50v-50h-50v-50h-50v-50h300v-100h-500v100h100v100h50v50h50v50h50v50h50v50h-300v100h500v-100h-100z" />
    <glyph glyph-name="braceleft" unicode="{" 
d="M325 100h175v-100h-300v700h300v-100h-175v-500z" />
    <glyph glyph-name="bar" unicode="|" 
d="M200 700h100v-700h-100v700zM400 700h100v-700h-100v700z" />
    <glyph glyph-name="braceright" unicode="}" 
d="M500 0h-300v100h175v500h-175v100h300v-700z" />
    <glyph glyph-name="asciitilde" unicode="~" 
 />
    <glyph glyph-name="uni007F" 
 />
    <glyph glyph-name="uni0080" 
 />
    <glyph glyph-name="uni0081" 
 />
    <glyph glyph-name="uni0082" 
 />
    <glyph glyph-name="uni0083" 
 />
    <glyph glyph-name="uni0084" 
 />
    <glyph glyph-name="uni0085" unicode="&#x85;" 
 />
    <glyph glyph-name="uni0086" 
 />
    <glyph glyph-name="uni0087" 
 />
    <glyph glyph-name="uni0088" 
 />
    <glyph glyph-name="uni0089" 
 />
    <glyph glyph-name="uni008A" 
 />
    <glyph glyph-name="uni008B" 
 />
    <glyph glyph-name="uni008C" 
 />
    <glyph glyph-name="uni008D" 
 />
    <glyph glyph-name="uni008E" 
 />
    <glyph glyph-name="uni008F" 
 />
    <glyph glyph-name="uni0090" 
 />
    <glyph glyph-name="uni0091" 
 />
    <glyph glyph-name="uni0092" 
 />
    <glyph glyph-name="uni0093" 
 />
    <glyph glyph-name="uni0094" 
 />
    <glyph glyph-name="uni0095" 
 />
    <glyph glyph-name="uni0096" 
 />
    <glyph glyph-name="uni0097" 
 />
    <glyph glyph-name="uni0098" 
 />
    <glyph glyph-name="uni0099" 
 />
    <glyph glyph-name="uni009A" 
 />
    <glyph glyph-name="uni009B" 
 />
    <glyph glyph-name="uni009C" 
 />
    <glyph glyph-name="uni009D" 
 />
    <glyph glyph-name="uni009E" 
 />
    <glyph glyph-name="uni009F" 
 />
    <glyph glyph-name="nonbreakingspace" unicode="&#xa0;" 
 />
    <glyph glyph-name="exclamdown" unicode="&#xa1;" 
 />
    <glyph glyph-name="cent" unicode="&#xa2;" 
 />
    <glyph glyph-name="sterling" unicode="&#xa3;" 
d="M600 0h-500v100h100v200h-100v100h100v200h50v50h50v50h200v-50h50v-50h50v-100h-100v50h-50v50h-100v-50h-50v-150h100v-100h-100v-200h300v-100z" />
    <glyph glyph-name="currency" unicode="&#xa4;" 
 />
    <glyph glyph-name="yen" unicode="&#xa5;" 
 />
    <glyph glyph-name="brokenbar" unicode="&#xa6;" 
 />
    <glyph glyph-name="section" unicode="&#xa7;" 
 />
    <glyph glyph-name="dieresis" unicode="&#xa8;" 
 />
    <glyph glyph-name="copyright" unicode="&#xa9;" 
 />
    <glyph glyph-name="ordfeminine" unicode="&#xaa;" 
 />
    <glyph glyph-name="guillemotleft" unicode="&#xab;" 
 />
    <glyph glyph-name="logicalnot" unicode="&#xac;" 
 />
    <glyph glyph-name="uni00AD" unicode="&#xad;" 
 />
    <glyph glyph-name="registered" unicode="&#xae;" 
 />
    <glyph glyph-name="macron" unicode="&#xaf;" 
 />
    <glyph glyph-name="degree" unicode="&#xb0;" 
 />
    <glyph glyph-name="plusminus" unicode="&#xb1;" 
 />
    <glyph glyph-name="uni00B2" unicode="&#xb2;" 
 />
    <glyph glyph-name="uni00B3" unicode="&#xb3;" 
 />
    <glyph glyph-name="acute" unicode="&#xb4;" 
 />
    <glyph glyph-name="uni00B5" unicode="&#xb5;" 
 />
    <glyph glyph-name="paragraph" unicode="&#xb6;" 
d="M100 700h500v-700h-500v700z" />
    <glyph glyph-name="periodcentered" unicode="&#xb7;" 
 />
    <glyph glyph-name="cedilla" unicode="&#xb8;" 
 />
    <glyph glyph-name="uni00B9" unicode="&#xb9;" 
 />
    <glyph glyph-name="ordmasculine" unicode="&#xba;" 
 />
    <glyph glyph-name="guillemotright" unicode="&#xbb;" 
 />
    <glyph glyph-name="onequarter" unicode="&#xbc;" 
d="M300 200h-100v500h100v-500zM600 -200h-100v100h-200v200h50v50h50v50h100v100h100v-500zM500 0v100h-50v-50h-50v-50h100z" />
    <glyph glyph-name="onehalf" unicode="&#xbd;" 
d="M200 200h-100v500h100v-500zM600 -200h-300v200h50v50h50v50h50v100h-150v100h200v-50h50v-50h50v-100h-50v-50h-50v-50h-50v-50h-50v-50h200v-100z" />
    <glyph glyph-name="threequarters" unicode="&#xbe;" 
d="M400 300h-50v-50h-50v-50h-200v100h150v100h-150v100h150v100h-150v100h200v-50h50v-50h50v-100h-50v-100h50v-100zM600 -200h-100v100h-200v200h50v50h50v50h100v100h100v-500zM500 0v100h-50v-50h-50v-50h100z" />
    <glyph glyph-name="questiondown" unicode="&#xbf;" 
 />
    <glyph glyph-name="Agrave" unicode="&#xc0;" 
 />
    <glyph glyph-name="Aacute" unicode="&#xc1;" 
 />
    <glyph glyph-name="Acircumflex" unicode="&#xc2;" 
 />
    <glyph glyph-name="Atilde" unicode="&#xc3;" 
 />
    <glyph glyph-name="Adieresis" unicode="&#xc4;" 
 />
    <glyph glyph-name="Aring" unicode="&#xc5;" 
 />
    <glyph glyph-name="AE" unicode="&#xc6;" 
 />
    <glyph glyph-name="Ccedilla" unicode="&#xc7;" 
 />
    <glyph glyph-name="Egrave" unicode="&#xc8;" 
 />
    <glyph glyph-name="Eacute" unicode="&#xc9;" 
 />
    <glyph glyph-name="Ecircumflex" unicode="&#xca;" 
 />
    <glyph glyph-name="Edieresis" unicode="&#xcb;" 
 />
    <glyph glyph-name="Igrave" unicode="&#xcc;" 
 />
    <glyph glyph-name="Iacute" unicode="&#xcd;" 
 />
    <glyph glyph-name="Icircumflex" unicode="&#xce;" 
 />
    <glyph glyph-name="Idieresis" unicode="&#xcf;" 
 />
    <glyph glyph-name="Eth" unicode="&#xd0;" 
 />
    <glyph glyph-name="Ntilde" unicode="&#xd1;" 
 />
    <glyph glyph-name="Ograve" unicode="&#xd2;" 
 />
    <glyph glyph-name="Oacute" unicode="&#xd3;" 
 />
    <glyph glyph-name="Ocircumflex" unicode="&#xd4;" 
 />
    <glyph glyph-name="Otilde" unicode="&#xd5;" 
 />
    <glyph glyph-name="Odieresis" unicode="&#xd6;" 
 />
    <glyph glyph-name="multiply" unicode="&#xd7;" 
 />
    <glyph glyph-name="Oslash" unicode="&#xd8;" 
 />
    <glyph glyph-name="Ugrave" unicode="&#xd9;" 
 />
    <glyph glyph-name="Uacute" unicode="&#xda;" 
 />
    <glyph glyph-name="Ucircumflex" unicode="&#xdb;" 
 />
    <glyph glyph-name="Udieresis" unicode="&#xdc;" 
 />
    <glyph glyph-name="Yacute" unicode="&#xdd;" 
 />
    <glyph glyph-name="Thorn" unicode="&#xde;" 
 />
    <glyph glyph-name="germandbls" unicode="&#xdf;" 
 />
    <glyph glyph-name="agrave" unicode="&#xe0;" 
 />
    <glyph glyph-name="aacute" unicode="&#xe1;" 
 />
    <glyph glyph-name="acircumflex" unicode="&#xe2;" 
 />
    <glyph glyph-name="atilde" unicode="&#xe3;" 
 />
    <glyph glyph-name="adieresis" unicode="&#xe4;" 
 />
    <glyph glyph-name="aring" unicode="&#xe5;" 
 />
    <glyph glyph-name="ae" unicode="&#xe6;" 
 />
    <glyph glyph-name="ccedilla" unicode="&#xe7;" 
 />
    <glyph glyph-name="egrave" unicode="&#xe8;" 
 />
    <glyph glyph-name="eacute" unicode="&#xe9;" 
 />
    <glyph glyph-name="ecircumflex" unicode="&#xea;" 
 />
    <glyph glyph-name="edieresis" unicode="&#xeb;" 
 />
    <glyph glyph-name="igrave" unicode="&#xec;" 
 />
    <glyph glyph-name="iacute" unicode="&#xed;" 
 />
    <glyph glyph-name="icircumflex" unicode="&#xee;" 
 />
    <glyph glyph-name="idieresis" unicode="&#xef;" 
 />
    <glyph glyph-name="eth" unicode="&#xf0;" 
 />
    <glyph glyph-name="ntilde" unicode="&#xf1;" 
 />
    <glyph glyph-name="ograve" unicode="&#xf2;" 
 />
    <glyph glyph-name="oacute" unicode="&#xf3;" 
 />
    <glyph glyph-name="ocircumflex" unicode="&#xf4;" 
 />
    <glyph glyph-name="otilde" unicode="&#xf5;" 
 />
    <glyph glyph-name="odieresis" unicode="&#xf6;" 
 />
    <glyph glyph-name="divide" unicode="&#xf7;" 
d="M300 200h100v-100h-100v100zM100 400h500v-100h-500v100zM300 600h100v-100h-100v100z" />
    <glyph glyph-name="oslash" unicode="&#xf8;" 
 />
    <glyph glyph-name="ugrave" unicode="&#xf9;" 
 />
    <glyph glyph-name="uacute" unicode="&#xfa;" 
 />
    <glyph glyph-name="ucircumflex" unicode="&#xfb;" 
 />
    <glyph glyph-name="udieresis" unicode="&#xfc;" 
 />
    <glyph glyph-name="yacute" unicode="&#xfd;" 
 />
    <glyph glyph-name="thorn" unicode="&#xfe;" 
 />
    <glyph glyph-name="ydieresis" unicode="&#xff;" 
 />
    <glyph glyph-name="uniE000" unicode="&#xe000;" 
 />
    <glyph glyph-name="uniE001" unicode="&#xe001;" 
 />
    <glyph glyph-name="uniE002" unicode="&#xe002;" 
 />
    <glyph glyph-name="uniE003" unicode="&#xe003;" 
 />
    <glyph glyph-name="uniE004" unicode="&#xe004;" 
 />
    <glyph glyph-name="uniE005" unicode="&#xe005;" 
 />
    <glyph glyph-name="uniE006" unicode="&#xe006;" 
 />
    <glyph glyph-name="uniE007" unicode="&#xe007;" 
 />
    <glyph glyph-name="uniE008" unicode="&#xe008;" 
 />
    <glyph glyph-name="uniE009" unicode="&#xe009;" 
 />
    <glyph glyph-name="uniE00A" unicode="&#xe00a;" 
 />
    <glyph glyph-name="uniE00B" unicode="&#xe00b;" 
 />
    <glyph glyph-name="uniE00C" unicode="&#xe00c;" 
 />
    <glyph glyph-name="uniE00D" unicode="&#xe00d;" 
 />
    <glyph glyph-name="uniE00E" unicode="&#xe00e;" 
 />
    <glyph glyph-name="uniE00F" unicode="&#xe00f;" 
 />
    <glyph glyph-name="uniE010" unicode="&#xe010;" 
 />
    <glyph glyph-name="uniE011" unicode="&#xe011;" 
 />
    <glyph glyph-name="uniE012" unicode="&#xe012;" 
 />
    <glyph glyph-name="uniE013" unicode="&#xe013;" 
 />
    <glyph glyph-name="uniE014" unicode="&#xe014;" 
 />
    <glyph glyph-name="uniE015" unicode="&#xe015;" 
 />
    <glyph glyph-name="uniE016" unicode="&#xe016;" 
 />
    <glyph glyph-name="uniE017" unicode="&#xe017;" 
 />
    <glyph glyph-name="uniE018" unicode="&#xe018;" 
 />
    <glyph glyph-name="uniE019" unicode="&#xe019;" 
 />
    <glyph glyph-name="uniE01A" unicode="&#xe01a;" 
 />
    <glyph glyph-name="uniE01B" unicode="&#xe01b;" 
 />
    <glyph glyph-name="uniE01C" unicode="&#xe01c;" 
 />
    <glyph glyph-name="uniE01D" unicode="&#xe01d;" 
 />
    <glyph glyph-name="uniE01E" unicode="&#xe01e;" 
 />
    <glyph glyph-name="uniE01F" unicode="&#xe01f;" 
 />
    <glyph glyph-name="uniE020" unicode="&#xe020;" 
 />
    <glyph glyph-name="uniE021" unicode="&#xe021;" 
d="M400 -200h-100v800h100v-800z" />
    <glyph glyph-name="uniE022" unicode="&#xe022;" 
d="M500 0h-100v600h100v-600zM300 0h-100v600h100v-600z" />
    <glyph glyph-name="uniE023" unicode="&#xe023;" 
d="M200 -200v200h-100v200h100v400h100v-400h100v400h100v-400h100v-200h-100v-200h-300z" />
    <glyph glyph-name="uniE024" unicode="&#xe024;" 
d="M200 -200v100h-50v100h-50v400h50v100h50v100h300v-100h50v-100h50v-200h-100v100h-50v100h-50v-400h100v-100h50v-100h-350zM300 0v400h-50v-100h-50v-200h50v-100h50z" />
    <glyph glyph-name="uniE025" unicode="&#xe025;" 
d="M250 -200v100h50v100h50v100h50v100h50v100h50v100h100v-200h-50v-100h-50v-100h-50v-100h-50v-100h-150zM100 600h200v-400h-200v400z" />
    <glyph glyph-name="uniE026" unicode="&#xe026;" 
d="M300 300h-100v-200h100v200zM150 -200v200h-50v400h50v100h50v100h100v-100h50v-100h50v-400h-50v-200h-200z" />
    <glyph glyph-name="uniE027" unicode="&#xe027;" 
d="M300 600h100v-600h-100v600z" />
    <glyph glyph-name="uniE028" unicode="&#xe028;" 
d="M200 -200v400h50v100h50v100h50v100h50v100h100v-200h-50v-100h-50v-100h-50v-100h-50v-300h-100z" />
    <glyph glyph-name="uniE029" unicode="&#xe029;" 
d="M400 -200v300h-50v100h-50v100h-50v100h-50v200h100v-100h50v-100h50v-100h50v-100h50v-400h-100z" />
    <glyph glyph-name="uniE02A" unicode="&#xe02a;" 
d="M300 -200v200h-100v100h-50v100h-50v200h100v-100h50v-100h50v400h100v-400h50v100h50v100h100v-200h-50v-100h-50v-100h-100v-200h-100z" />
    <glyph glyph-name="uniE02B" unicode="&#xe02b;" 
d="M100 -200v200h200v400h100v-400h200v-200h-500z" />
    <glyph glyph-name="uniE02C" unicode="&#xe02c;" 
 />
    <glyph glyph-name="uniE02D" unicode="&#xe02d;" 
d="M500 -200h-300v200h300v-200z" />
    <glyph glyph-name="uniE02E" unicode="&#xe02e;" 
 />
    <glyph glyph-name="uniE02F" unicode="&#xe02f;" 
d="M250 -200v100h50v100h50v100h50v100h50v100h50v100h100v-200h-50v-100h-50v-100h-50v-100h-50v-100h-150z" />
    <glyph glyph-name="uniE030" unicode="&#xe030;" 
d="M100 -200v400h50v100h50v100h50v100h50v100h100v-100h50v-100h50v-100h50v-100h50v-400h-100v300h-50v100h-50v100h-100v-100h-50v-100h-50v-300h-100z" />
    <glyph glyph-name="uniE031" unicode="&#xe031;" 
d="M300 -200v400h-100v200h100v200h100v-800h-100z" />
    <glyph glyph-name="uniE032" unicode="&#xe032;" 
d="M250 -200v100h50v100h150v100h50v200h-50v100h-200v-100h-50v-100h-100v200h50v100h50v100h300v-100h50v-100h50v-400h-50v-100h-50v-100h-250z" />
    <glyph glyph-name="uniE033" unicode="&#xe033;" 
d="M300 -200v200h100v200h50v100h50v100h-400v200h500v-400h-50v-100h-50v-300h-200z" />
    <glyph glyph-name="uniE034" unicode="&#xe034;" 
d="M100 -200v200h50v100h50v100h50v100h50v100h100v200h100v-800h-100v400h-50v-100h-50v-100h-50v-100h-50v-100h-100z" />
    <glyph glyph-name="uniE035" unicode="&#xe035;" 
d="M500 -200v100h-50v100h-350v600h500v-200h-400v-200h300v-100h50v-100h50v-200h-100z" />
    <glyph glyph-name="uniE036" unicode="&#xe036;" 
d="M100 -200v400h50v100h50v100h50v100h50v100h200v-200h-150v-100h-50v-100h-50v-100h-50v-100h300v-100h50v-100h-450z" />
    <glyph glyph-name="uniE037" unicode="&#xe037;" 
d="M250 -200v100h50v100h50v100h50v100h50v100h50v100h-400v200h500v-400h-50v-100h-50v-100h-50v-100h-50v-100h-150z" />
    <glyph glyph-name="uniE038" unicode="&#xe038;" 
d="M150 -200v200h-50v400h50v100h50v100h300v-100h50v-100h50v-400h-50v-200h-400zM500 100v200h-50v100h-200v-100h-50v-200h50v-100h200v100h50z" />
    <glyph glyph-name="uniE039" unicode="&#xe039;" 
d="M200 -200v100h-50v100h-50v400h50v100h50v100h300v-100h50v-100h50v-600h-400zM250 0h250v300h-50v100h-200v-100h-50v-200h50v-100z" />
    <glyph glyph-name="uniE03A" unicode="&#xe03a;" 
d="M400 0h-100v200h100v-200z" />
    <glyph glyph-name="uniE03B" unicode="&#xe03b;" 
d="M400 0h-100v200h100v-200z" />
    <glyph glyph-name="uniE03C" unicode="&#xe03c;" 
d="M100 -200v200h50v100h50v100h50v100h50v100h50v100h50v100h100v-200h-50v-100h-50v-100h-50v-100h-50v-100h-50v-200h-150z" />
    <glyph glyph-name="uniE03D" unicode="&#xe03d;" 
d="M600 0h-500v200h500v-200z" />
    <glyph glyph-name="uniE03E" unicode="&#xe03e;" 
d="M450 -200v200h-50v100h-50v100h-50v100h-50v100h-50v200h100v-100h50v-100h50v-100h50v-100h50v-100h50v-100h50v-200h-150z" />
    <glyph glyph-name="uniE03F" unicode="&#xe03f;" 
d="M300 0h50v100h50v100h50v200h-200v-100h-50v-100h-100v200h50v100h50v100h300v-100h50v-100h50v-200h-50v-100h-50v-100h-50v-100h-50v-100h-100v200z" />
    <glyph glyph-name="uniE040" unicode="&#xe040;" 
d="M100 -200v600h50v100h50v100h300v-100h50v-100h50v-600h-100v200h-100v-200h-100v400h200v100h-50v100h-200v-100h-50v-500h-100z" />
    <glyph glyph-name="uniE041" unicode="&#xe041;" 
d="M500 -200v300h-50v100h-50v100h-100v-100h-50v-100h-50v-300h-100v400h50v100h50v100h50v100h50v100h100v-100h50v-100h50v-100h50v-100h50v-400h-100z" />
    <glyph glyph-name="uniE042" unicode="&#xe042;" 
d="M500 100v200h-50v100h-250v-400h250v100h50zM100 -200v800h400v-100h50v-100h50v-400h-50v-200h-450z" />
    <glyph glyph-name="uniE043" unicode="&#xe043;" 
d="M100 -200v600h50v100h50v100h300v-100h50v-100h50v-200h-100v100h-50v100l-200 -4v-96h-50v-500h-100z" />
    <glyph glyph-name="uniE044" unicode="&#xe044;" 
d="M100 -200v800h400v-100h50v-100h50v-600h-100v500h-50v100h-250v-600h-100z" />
    <glyph glyph-name="uniE045" unicode="&#xe045;" 
d="M100 -200v800h500v-200h-400v-401h300v-199h-400z" />
    <glyph glyph-name="uniE046" unicode="&#xe046;" 
d="M100 -200v800h500v-200h-400v-401h300v-199h-400z" />
    <glyph glyph-name="uniE047" unicode="&#xe047;" 
d="M100 -200v600h50v100h50v100h300v-100h50v-100h50v-200h-100v100h-50v100h-200v-100h-50v-500h-100z" />
    <glyph glyph-name="uniE048" unicode="&#xe048;" 
d="M100 -200v800h100v-600h300v600h100v-800h-500z" />
    <glyph glyph-name="uniE049" unicode="&#xe049;" 
d="M300 -200v600h-100v200h300v-200h-100v-600h-100z" />
    <glyph glyph-name="uniE04A" unicode="&#xe04a;" 
d="M500 -200v800h100v-800h-100z" />
    <glyph glyph-name="uniE04B" unicode="&#xe04b;" 
d="M100 -200v800h100v-600h50v100h50v100h50v100h50v100h50v100h50v100h100v-200h-50v-100h-50v-100h-50v-100h-50v-100h-50v-200h-250z" />
    <glyph glyph-name="uniE04C" unicode="&#xe04c;" 
d="M100 -200v800h100v-800h-100z" />
    <glyph glyph-name="uniE04D" unicode="&#xe04d;" 
d="M500 600h100v-800h-100v400h-50v-100h-50v-200h-100v200h-50v100h-50v-400h-100v800h100v-200h100v-100h100v100h100v200z" />
    <glyph glyph-name="uniE04E" unicode="&#xe04e;" 
d="M300 -200v100h-50v100h-50v-200h-100v800h100v-400h100v-100h50v-100h50v-100h50v-100h-150zM500 -200v800h100v-800h-100z" />
    <glyph glyph-name="uniE04F" unicode="&#xe04f;" 
d="M100 -200v600h50v100h50v100h300v-100h50v-100h50v-600h-100v500h-50v100h-200v-100h-50v-500h-100z" />
    <glyph glyph-name="uniE050" unicode="&#xe050;" 
d="M450 400h-250v-400h250v100h50v200h-50v100zM100 -200v800h400v-100h50v-100h50v-400h-50v-100h-50v-100h-400z" />
    <glyph glyph-name="uniE051" unicode="&#xe051;" 
d="M100 -200v600h50v100h50v100h300v-100h50v-100h50v-600h-100v500h-50v100h-200v-100h-50v-500h-100z" />
    <glyph glyph-name="uniE052" unicode="&#xe052;" 
d="M200 0h250v100h50v200h-50v100h-250v-400zM100 -200v800h400v-100h50v-100h50v-400h-50v-100h-50v-100h-400z" />
    <glyph glyph-name="uniE053" unicode="&#xe053;" 
d="M200 -200v100h-50v100h-50v400h50v100h50v100h300v-100h50v-100h50v-200h-100v100h-50v100h-200v-100h-50v-200h50v-100h250v-100h50v-100h-350z" />
    <glyph glyph-name="uniE054" unicode="&#xe054;" 
d="M400 -200h-100v600h-200v200h500v-200h-200v-600z" />
    <glyph glyph-name="uniE055" unicode="&#xe055;" 
d="M500 -200v800h100v-800h-100zM100 -200v800h100v-800h-100z" />
    <glyph glyph-name="uniE056" unicode="&#xe056;" 
d="M400 -200v200h50v100h50v500h100v-600h-50v-100h-50v-100h-100zM200 -200v100h-50v100h-50v600h100v-500h50v-100h50v-200h-100z" />
    <glyph glyph-name="uniE057" unicode="&#xe057;" 
d="M300 -200v200h100v-200h-100zM500 -200v800h100v-800h-100zM100 -200v800h100v-800h-100z" />
    <glyph glyph-name="uniE058" unicode="&#xe058;" 
d="M250 -200v200h-50v100h-50v100h-50v400h100v-300h50v-100h50v-100h100v100h50v100h50v300h100v-400h-50v-100h-50v-100h-50v-200h-200z" />
    <glyph glyph-name="uniE059" unicode="&#xe059;" 
d="M400 -100v-100h-100v100h-50v100h-50v100h-50v100h-50v400h100v-300h50v-100h50v-100h100v100h50v100h50v300h100v-400h-50v-100h-50v-100h-50v-100h-50z" />
    <glyph glyph-name="uniE05A" unicode="&#xe05a;" 
d="M250 -200v100h50v100h50v100h50v100h50v100h50v100h-400v200h500v-400h-50v-100h-50v-100h-50v-100h-50v-100h-150z" />
    <glyph glyph-name="uniE05B" unicode="&#xe05b;" 
d="M100 -200v200h100v200h50v100h50v100h100v-200h-50v-100h-50v-100h300v-200h-500z" />
    <glyph glyph-name="uniE05C" unicode="&#xe05c;" 
d="M300 -200v100h-50v100h-50v100h-50v100h-50v200h100v-100h50v-100h50v-100h50v-100h50v-100h50v-100h-150z" />
    <glyph glyph-name="uniE05D" unicode="&#xe05d;" 
d="M100 -200v200h300v100h-50v100h-50v200h100v-100h50v-100h50v-200h100v-200h-500z" />
    <glyph glyph-name="uniE05E" unicode="&#xe05e;" 
d="M500 100h50v-100h50v-200h-100v100h-50v100h-50v-200h-100v200h-50v-100h-50v-100h-100v200h50v100h50v100h100v200h100v-200h100v-100z" />
    <glyph glyph-name="uniE05F" unicode="&#xe05f;" 
 />
    <glyph glyph-name="uniE060" unicode="&#xe060;" 
d="M100 0h500v-200h-500v200z" />
    <glyph glyph-name="uniE061" unicode="&#xe061;" 
d="M500 -200v100h-50v100h-250v200h300v-100h50v-100h50v-200h-100z" />
    <glyph glyph-name="uniE062" unicode="&#xe062;" 
d="M500 -200v100h-50v100h-250v-200h-100v800h100v-400h300v-100h50v-100h50v-200h-100z" />
    <glyph glyph-name="uniE063" unicode="&#xe063;" 
d="M100 -200v200h50v100h50v100h400v-200h-350v-100h-50v-100h-100z" />
    <glyph glyph-name="uniE064" unicode="&#xe064;" 
d="M500 -200v200h-250v-100h-50v-100h-100v200h50v100h50v100h300v400h100v-800h-100z" />
    <glyph glyph-name="uniE065" unicode="&#xe065;" 
d="M100 -200v200h50v100h50v100h300v-100h50v-100h50v-200h-100v100h-50v100h-200v-100h-50v-100h-100z" />
    <glyph glyph-name="uniE066" unicode="&#xe066;" 
d="M200 -200v200h100v400h50v100h50v100h100v-200h-50v-100h-50v-300h100v-200h-300z" />
    <glyph glyph-name="uniE067" unicode="&#xe067;" 
d="M100 -200v200h50v100h50v100h400v-400h-100v200h-250v-100h-50v-100h-100z" />
    <glyph glyph-name="uniE068" unicode="&#xe068;" 
d="M200 200h300v-100h50v-100h50v-200h-100v100h-50v100h-250v-200h-100v800h100v-400z" />
    <glyph glyph-name="uniE069" unicode="&#xe069;" 
d="M300 600h100v-200h-100v200zM300 -200v200h-100v200h200v-400h-100z" />
    <glyph glyph-name="uniE06A" unicode="&#xe06a;" 
d="M300 600h100v-200h-100v200zM300 -200v400h100v-400h-100z" />
    <glyph glyph-name="uniE06B" unicode="&#xe06b;" 
d="M350 -200v100h50v100h50v100h50v100h100v-200h-50v-100h-50v-100h-150zM200 -200v800h100v-800h-100z" />
    <glyph glyph-name="uniE06C" unicode="&#xe06c;" 
d="M300 -200v600h-100v200h200v-800h-100z" />
    <glyph glyph-name="uniE06D" unicode="&#xe06d;" 
d="M400 -100v-100h-100v100h-50v100h-50v-200h-100v400h200v-100h100v100h100v-100h50v-100h50v-200h-100v100h-100z" />
    <glyph glyph-name="uniE06E" unicode="&#xe06e;" 
d="M200 -200h-100v400h400v-100h50v-100h50v-200h-100v100h-50v100h-250v-200z" />
    <glyph glyph-name="uniE06F" unicode="&#xe06f;" 
d="M100 -200v200h50v100h50v100h300v-100h50v-100h50v-200h-100v100h-50v100h-200v-100h-50v-100h-100z" />
    <glyph glyph-name="uniE070" unicode="&#xe070;" 
d="M100 -200v400h400v-100h50v-100h50v-200h-100v100h-50v100h-250v-200h-100z" />
    <glyph glyph-name="uniE071" unicode="&#xe071;" 
d="M500 -200v200h-250v-100h-50v-100h-100v200h50v100h50v100h400v-400h-100z" />
    <glyph glyph-name="uniE072" unicode="&#xe072;" 
d="M200 -200v400h100v-200h50v100h50v100h200v-200h-150v-100h-50v-100h-200z" />
    <glyph glyph-name="uniE073" unicode="&#xe073;" 
d="M100 -200v200h50v100h50v100h400v-200h-350v-200h-150z" />
    <glyph glyph-name="uniE074" unicode="&#xe074;" 
d="M300 -200v200h-100v200h100v400h100v-400h100v-200h-100v-200h-100z" />
    <glyph glyph-name="uniE075" unicode="&#xe075;" 
d="M100 -200v400h100v-400h-100zM500 -200v400h100v-400h-100z" />
    <glyph glyph-name="uniE076" unicode="&#xe076;" 
d="M450 -200v100h50v300h100v-400h-150zM100 -200v400h100v-300h50v-100h-150z" />
    <glyph glyph-name="uniE077" unicode="&#xe077;" 
d="M500 -200v400h100v-400h-100zM100 -200v400h100v-400h-100z" />
    <glyph glyph-name="uniE078" unicode="&#xe078;" 
d="M200 -200v100h-50v100h-50v200h100v-100h50v-100h50v-100h100v100h50v100h50v100h100v-200h-50v-100h-50v-100h-300z" />
    <glyph glyph-name="uniE079" unicode="&#xe079;" 
d="M100 -200v400h100v-400h-100zM500 -200v400h100v-400h-100z" />
    <glyph glyph-name="uniE07A" unicode="&#xe07a;" 
d="M350 -200v100h50v100h-300v200h500v-200h-100v-200h-150z" />
    <glyph glyph-name="uniE07B" unicode="&#xe07b;" 
d="M200 -200v800h300v-200h-175v-600h-125z" />
    <glyph glyph-name="uniE07C" unicode="&#xe07c;" 
d="M200 600h100v-800h-100v800zM400 600h100v-800h-100v800z" />
    <glyph glyph-name="uniE07D" unicode="&#xe07d;" 
d="M375 -200v600h-175v200h300v-800h-125z" />
    <glyph glyph-name="uniE07E" unicode="&#xe07e;" 
 />
    <glyph glyph-name="uniE07F" unicode="&#xe07f;" 
 />
    <glyph glyph-name="uniE080" unicode="&#xe080;" 
 />
    <glyph glyph-name="uniE081" unicode="&#xe081;" 
 />
    <glyph glyph-name="uniE082" unicode="&#xe082;" 
 />
    <glyph glyph-name="uniE083" unicode="&#xe083;" 
 />
    <glyph glyph-name="uniE084" unicode="&#xe084;" 
 />
    <glyph glyph-name="uniE085" unicode="&#xe085;" 
 />
    <glyph glyph-name="uniE086" unicode="&#xe086;" 
 />
    <glyph glyph-name="uniE087" unicode="&#xe087;" 
 />
    <glyph glyph-name="uniE088" unicode="&#xe088;" 
 />
    <glyph glyph-name="uniE089" unicode="&#xe089;" 
 />
    <glyph glyph-name="uniE08A" unicode="&#xe08a;" 
 />
    <glyph glyph-name="uniE08B" unicode="&#xe08b;" 
 />
    <glyph glyph-name="uniE08C" unicode="&#xe08c;" 
 />
    <glyph glyph-name="uniE08D" unicode="&#xe08d;" 
 />
    <glyph glyph-name="uniE08E" unicode="&#xe08e;" 
 />
    <glyph glyph-name="uniE08F" unicode="&#xe08f;" 
 />
    <glyph glyph-name="uniE090" unicode="&#xe090;" 
 />
    <glyph glyph-name="uniE091" unicode="&#xe091;" 
 />
    <glyph glyph-name="uniE092" unicode="&#xe092;" 
 />
    <glyph glyph-name="uniE093" unicode="&#xe093;" 
 />
    <glyph glyph-name="uniE094" unicode="&#xe094;" 
 />
    <glyph glyph-name="uniE095" unicode="&#xe095;" 
 />
    <glyph glyph-name="uniE096" unicode="&#xe096;" 
 />
    <glyph glyph-name="uniE097" unicode="&#xe097;" 
 />
    <glyph glyph-name="uniE098" unicode="&#xe098;" 
 />
    <glyph glyph-name="uniE099" unicode="&#xe099;" 
 />
    <glyph glyph-name="uniE09A" unicode="&#xe09a;" 
 />
    <glyph glyph-name="uniE09B" unicode="&#xe09b;" 
 />
    <glyph glyph-name="uniE09C" unicode="&#xe09c;" 
 />
    <glyph glyph-name="uniE09D" unicode="&#xe09d;" 
 />
    <glyph glyph-name="uniE09E" unicode="&#xe09e;" 
 />
    <glyph glyph-name="uniE09F" unicode="&#xe09f;" 
 />
    <glyph glyph-name="uniE0A0" unicode="&#xe0a0;" 
 />
    <glyph glyph-name="uniE0A1" unicode="&#xe0a1;" 
 />
    <glyph glyph-name="uniE0A2" unicode="&#xe0a2;" 
 />
    <glyph glyph-name="uniE0A3" unicode="&#xe0a3;" 
d="M100 -200v200h100v400h50v100h50v100h200v-100h50v-100h50v-200h-100v100h-50v100h-100v-100h-50v-300h100v-200h-300z" />
    <glyph glyph-name="uniE0A4" unicode="&#xe0a4;" 
 />
    <glyph glyph-name="uniE0A5" unicode="&#xe0a5;" 
 />
    <glyph glyph-name="uniE0A6" unicode="&#xe0a6;" 
 />
    <glyph glyph-name="uniE0A7" unicode="&#xe0a7;" 
 />
    <glyph glyph-name="uniE0A8" unicode="&#xe0a8;" 
 />
    <glyph glyph-name="uniE0A9" unicode="&#xe0a9;" 
 />
    <glyph glyph-name="uniE0AA" unicode="&#xe0aa;" 
 />
    <glyph glyph-name="uniE0AB" unicode="&#xe0ab;" 
 />
    <glyph glyph-name="uniE0AC" unicode="&#xe0ac;" 
 />
    <glyph glyph-name="uniE0AD" unicode="&#xe0ad;" 
 />
    <glyph glyph-name="uniE0AE" unicode="&#xe0ae;" 
 />
    <glyph glyph-name="uniE0AF" unicode="&#xe0af;" 
 />
    <glyph glyph-name="uniE0B0" unicode="&#xe0b0;" 
 />
    <glyph glyph-name="uniE0B1" unicode="&#xe0b1;" 
 />
    <glyph glyph-name="uniE0B2" unicode="&#xe0b2;" 
 />
    <glyph glyph-name="uniE0B3" unicode="&#xe0b3;" 
 />
    <glyph glyph-name="uniE0B4" unicode="&#xe0b4;" 
 />
    <glyph glyph-name="uniE0B5" unicode="&#xe0b5;" 
 />
    <glyph glyph-name="uniE0B6" unicode="&#xe0b6;" 
d="M100 600h500v-800h-500v800z" />
    <glyph glyph-name="uniE0B7" unicode="&#xe0b7;" 
 />
    <glyph glyph-name="uniE0B8" unicode="&#xe0b8;" 
 />
    <glyph glyph-name="uniE0B9" unicode="&#xe0b9;" 
 />
    <glyph glyph-name="uniE0BA" unicode="&#xe0ba;" 
 />
    <glyph glyph-name="uniE0BB" unicode="&#xe0bb;" 
 />
    <glyph glyph-name="uniE0BC" unicode="&#xe0bc;" 
d="M300 -200h-100v800h100v-800z" />
    <glyph glyph-name="uniE0BD" unicode="&#xe0bd;" 
d="M200 -200h-100v800h100v-800z" />
    <glyph glyph-name="uniE0BE" unicode="&#xe0be;" 
d="M250 -200v200h-150v200h150v200h-150v200h200v-100h50v-100h50v-200h-50v-200h50v-200h-150z" />
    <glyph glyph-name="uniE0BF" unicode="&#xe0bf;" 
 />
    <glyph glyph-name="uniE0C0" unicode="&#xe0c0;" 
 />
    <glyph glyph-name="uniE0C1" unicode="&#xe0c1;" 
 />
    <glyph glyph-name="uniE0C2" unicode="&#xe0c2;" 
 />
    <glyph glyph-name="uniE0C3" unicode="&#xe0c3;" 
 />
    <glyph glyph-name="uniE0C4" unicode="&#xe0c4;" 
 />
    <glyph glyph-name="uniE0C5" unicode="&#xe0c5;" 
 />
    <glyph glyph-name="uniE0C6" unicode="&#xe0c6;" 
 />
    <glyph glyph-name="uniE0C7" unicode="&#xe0c7;" 
 />
    <glyph glyph-name="uniE0C8" unicode="&#xe0c8;" 
 />
    <glyph glyph-name="uniE0C9" unicode="&#xe0c9;" 
 />
    <glyph glyph-name="uniE0CA" unicode="&#xe0ca;" 
 />
    <glyph glyph-name="uniE0CB" unicode="&#xe0cb;" 
 />
    <glyph glyph-name="uniE0CC" unicode="&#xe0cc;" 
 />
    <glyph glyph-name="uniE0CD" unicode="&#xe0cd;" 
 />
    <glyph glyph-name="uniE0CE" unicode="&#xe0ce;" 
 />
    <glyph glyph-name="uniE0CF" unicode="&#xe0cf;" 
 />
    <glyph glyph-name="uniE0D0" unicode="&#xe0d0;" 
 />
    <glyph glyph-name="uniE0D1" unicode="&#xe0d1;" 
 />
    <glyph glyph-name="uniE0D2" unicode="&#xe0d2;" 
 />
    <glyph glyph-name="uniE0D3" unicode="&#xe0d3;" 
 />
    <glyph glyph-name="uniE0D4" unicode="&#xe0d4;" 
 />
    <glyph glyph-name="uniE0D5" unicode="&#xe0d5;" 
 />
    <glyph glyph-name="uniE0D6" unicode="&#xe0d6;" 
 />
    <glyph glyph-name="uniE0D7" unicode="&#xe0d7;" 
 />
    <glyph glyph-name="uniE0D8" unicode="&#xe0d8;" 
 />
    <glyph glyph-name="uniE0D9" unicode="&#xe0d9;" 
 />
    <glyph glyph-name="uniE0DA" unicode="&#xe0da;" 
 />
    <glyph glyph-name="uniE0DB" unicode="&#xe0db;" 
 />
    <glyph glyph-name="uniE0DC" unicode="&#xe0dc;" 
 />
    <glyph glyph-name="uniE0DD" unicode="&#xe0dd;" 
 />
    <glyph glyph-name="uniE0DE" unicode="&#xe0de;" 
 />
    <glyph glyph-name="uniE0DF" unicode="&#xe0df;" 
 />
    <glyph glyph-name="uniE0E0" unicode="&#xe0e0;" 
 />
    <glyph glyph-name="uniE0E1" unicode="&#xe0e1;" 
 />
    <glyph glyph-name="uniE0E2" unicode="&#xe0e2;" 
 />
    <glyph glyph-name="uniE0E3" unicode="&#xe0e3;" 
 />
    <glyph glyph-name="uniE0E4" unicode="&#xe0e4;" 
 />
    <glyph glyph-name="uniE0E5" unicode="&#xe0e5;" 
 />
    <glyph glyph-name="uniE0E6" unicode="&#xe0e6;" 
 />
    <glyph glyph-name="uniE0E7" unicode="&#xe0e7;" 
 />
    <glyph glyph-name="uniE0E8" unicode="&#xe0e8;" 
 />
    <glyph glyph-name="uniE0E9" unicode="&#xe0e9;" 
 />
    <glyph glyph-name="uniE0EA" unicode="&#xe0ea;" 
 />
    <glyph glyph-name="uniE0EB" unicode="&#xe0eb;" 
 />
    <glyph glyph-name="uniE0EC" unicode="&#xe0ec;" 
 />
    <glyph glyph-name="uniE0ED" unicode="&#xe0ed;" 
 />
    <glyph glyph-name="uniE0EE" unicode="&#xe0ee;" 
 />
    <glyph glyph-name="uniE0EF" unicode="&#xe0ef;" 
 />
    <glyph glyph-name="uniE0F0" unicode="&#xe0f0;" 
 />
    <glyph glyph-name="uniE0F1" unicode="&#xe0f1;" 
 />
    <glyph glyph-name="uniE0F2" unicode="&#xe0f2;" 
 />
    <glyph glyph-name="uniE0F3" unicode="&#xe0f3;" 
 />
    <glyph glyph-name="uniE0F4" unicode="&#xe0f4;" 
 />
    <glyph glyph-name="uniE0F5" unicode="&#xe0f5;" 
 />
    <glyph glyph-name="uniE0F6" unicode="&#xe0f6;" 
 />
    <glyph glyph-name="uniE0F7" unicode="&#xe0f7;" 
d="M100 0h500v-200h-500v200zM300 400h100v-200h-100v200z" />
    <glyph glyph-name="uniE0F8" unicode="&#xe0f8;" 
 />
    <glyph glyph-name="uniE0F9" unicode="&#xe0f9;" 
 />
    <glyph glyph-name="uniE0FA" unicode="&#xe0fa;" 
 />
    <glyph glyph-name="uniE0FB" unicode="&#xe0fb;" 
 />
    <glyph glyph-name="uniE0FC" unicode="&#xe0fc;" 
 />
    <glyph glyph-name="uniE0FD" unicode="&#xe0fd;" 
 />
    <glyph glyph-name="uniE0FE" unicode="&#xe0fe;" 
 />
    <glyph glyph-name="uniE0FF" unicode="&#xe0ff;" 
 />
    <glyph glyph-name="uniE100" unicode="&#xe100;" 
 />
    <glyph glyph-name="uniE101" unicode="&#xe101;" 
 />
    <glyph glyph-name="uniE102" unicode="&#xe102;" 
 />
    <glyph glyph-name="uniE103" unicode="&#xe103;" 
 />
    <glyph glyph-name="uniE104" unicode="&#xe104;" 
 />
    <glyph glyph-name="uniE105" unicode="&#xe105;" 
 />
    <glyph glyph-name="uniE106" unicode="&#xe106;" 
 />
    <glyph glyph-name="uniE107" unicode="&#xe107;" 
 />
    <glyph glyph-name="uniE108" unicode="&#xe108;" 
 />
    <glyph glyph-name="uniE109" unicode="&#xe109;" 
 />
    <glyph glyph-name="uniE10A" unicode="&#xe10a;" 
 />
    <glyph glyph-name="uniE10B" unicode="&#xe10b;" 
 />
    <glyph glyph-name="uniE10C" unicode="&#xe10c;" 
 />
    <glyph glyph-name="uniE10D" unicode="&#xe10d;" 
 />
    <glyph glyph-name="uniE10E" unicode="&#xe10e;" 
 />
    <glyph glyph-name="uniE10F" unicode="&#xe10f;" 
 />
    <glyph glyph-name="uniE110" unicode="&#xe110;" 
 />
    <glyph glyph-name="uniE111" unicode="&#xe111;" 
 />
    <glyph glyph-name="uniE112" unicode="&#xe112;" 
 />
    <glyph glyph-name="uniE113" unicode="&#xe113;" 
 />
    <glyph glyph-name="uniE114" unicode="&#xe114;" 
 />
    <glyph glyph-name="uniE115" unicode="&#xe115;" 
 />
    <glyph glyph-name="uniE116" unicode="&#xe116;" 
 />
    <glyph glyph-name="uniE117" unicode="&#xe117;" 
 />
    <glyph glyph-name="uniE118" unicode="&#xe118;" 
 />
    <glyph glyph-name="uniE119" unicode="&#xe119;" 
 />
    <glyph glyph-name="uniE11A" unicode="&#xe11a;" 
 />
    <glyph glyph-name="uniE11B" unicode="&#xe11b;" 
 />
    <glyph glyph-name="uniE11C" unicode="&#xe11c;" 
 />
    <glyph glyph-name="uniE11D" unicode="&#xe11d;" 
 />
    <glyph glyph-name="uniE11E" unicode="&#xe11e;" 
 />
    <glyph glyph-name="uniE11F" unicode="&#xe11f;" 
 />
    <glyph glyph-name="uniE120" unicode="&#xe120;" 
 />
    <glyph glyph-name="uniE121" unicode="&#xe121;" 
d="M400 600h-100v205h100v-205zM400 200h-100v200h100v-200z" />
    <glyph glyph-name="uniE122" unicode="&#xe122;" 
 />
    <glyph glyph-name="uniE123" unicode="&#xe123;" 
d="M600 805v-205h-100v-400h-100v400h-100v-400h-100v400h-100v205h500z" />
    <glyph glyph-name="uniE124" unicode="&#xe124;" 
d="M400 805v-405h50v100h50v200h-50v105h150v-405h-50v-100h-50v-100h-300v100h-50v100h-50v200h100v-100h50v-100h50v405h100z" />
    <glyph glyph-name="uniE125" unicode="&#xe125;" 
d="M350 805v-105h-50v-100h-50v-100h-50v-100h-100v200h50v100h50v105h150zM600 600v-400h-200v400h200z" />
    <glyph glyph-name="uniE126" unicode="&#xe126;" 
d="M350 400v200h-50v100h-100v-200h50v-100h100zM500 805h100v-205h-50v-200h50v-200h-100v100h-100v-100h-200v100h-50v100h-50v405h300v-105h100v105z" />
    <glyph glyph-name="uniE127" unicode="&#xe127;" 
 />
    <glyph glyph-name="uniE128" unicode="&#xe128;" 
d="M300 805v-105h50v-100h50v-100h50v-100h50v-200h-100v100h-50v100h-50v100h-50v100h-50v205h100z" />
    <glyph glyph-name="uniE129" unicode="&#xe129;" 
d="M500 805v-205h-50v-100h-50v-100h-50v-100h-50v-100h-100v200h50v100h50v100h50v100h50v105h100z" />
    <glyph glyph-name="uniE12A" unicode="&#xe12a;" 
d="M500 805v-105h50v-100h50v-200h-100v100h-50v100h-50v-400h-100v400h-50v-100h-50v-100h-100v200h50v100h50v105h300z" />
    <glyph glyph-name="uniE12B" unicode="&#xe12b;" 
d="M400 805v-405h-100v405h100z" />
    <glyph glyph-name="uniE12C" unicode="&#xe12c;" 
d="M200 200h50v100h50v300h100v-400h-50v-100h-50v-100h-100v200z" />
    <glyph glyph-name="uniE12D" unicode="&#xe12d;" 
 />
    <glyph glyph-name="uniE12E" unicode="&#xe12e;" 
d="M300 400h100v-200h-100v200z" />
    <glyph glyph-name="uniE12F" unicode="&#xe12f;" 
d="M350 805v-105h-50v-100h-50v-100h-50v-100h-100v200h50v100h50v105h150z" />
    <glyph glyph-name="uniE130" unicode="&#xe130;" 
d="M600 805v-205h-50v-100h-50v-100h-50v-100h-50v-100h-100v100h-50v100h-50v100h-50v100h-50v205h100v-105h50v-100h50v-100h100v100h50v100h50v105h100z" />
    <glyph glyph-name="uniE131" unicode="&#xe131;" 
d="M400 805v-405h100v-200h-300v200h100v405h100z" />
    <glyph glyph-name="uniE132" unicode="&#xe132;" 
d="M350 805v-105h-50v-100h-50v-100h-50v-100h400v-200h-500v400h50v100h50v105h150z" />
    <glyph glyph-name="uniE133" unicode="&#xe133;" 
d="M600 805v-405h-50v-100h-50v-100h-300v100h-50v100h-50v200h100v-100h50v-100h200v100h50v200h-50v105h150z" />
    <glyph glyph-name="uniE134" unicode="&#xe134;" 
d="M600 805v-205h-100v-400h-100v400h-300v205h500z" />
    <glyph glyph-name="uniE135" unicode="&#xe135;" 
d="M600 805v-405h-50v-100h-50v-100h-300v100h-50v100h-50v200h100v-100h50v-100h200v100h50v305h100z" />
    <glyph glyph-name="uniE136" unicode="&#xe136;" 
d="M200 805v-305h50v-100h200v100h50v200h-50v105h150v-405h-50v-100h-50v-100h-300v100h-50v100h-50v405h100z" />
    <glyph glyph-name="uniE137" unicode="&#xe137;" 
d="M350 805v-105h-50v-500h-100v605h150z" />
    <glyph glyph-name="uniE138" unicode="&#xe138;" 
d="M250 805v-105h-50v-200h50v-100h200v100h50v200h-50v105h150v-405h-50v-100h-50v-100h-300v100h-50v100h-50v405h150z" />
    <glyph glyph-name="uniE139" unicode="&#xe139;" 
d="M600 805v-205h-50v-100h-50v-100h-50v-100h-50v-100h-200v200h150v100h50v100h50v100h50v105h100z" />
    <glyph glyph-name="uniE13A" unicode="&#xe13a;" 
d="M400 200h-100v200h100v-200z" />
    <glyph glyph-name="uniE13B" unicode="&#xe13b;" 
d="M400 200h-50v-100h-50v-100h-100v200h50v100h50v300h100v-400z" />
    <glyph glyph-name="uniE13C" unicode="&#xe13c;" 
d="M300 805v-105h50v-100h50v-100h50v-100h50v-200h-100v100h-50v100h-50v100h-50v100h-50v100h-50v105h150z" />
    <glyph glyph-name="uniE13D" unicode="&#xe13d;" 
d="M600 600h-500v200h500v-200z" />
    <glyph glyph-name="uniE13E" unicode="&#xe13e;" 
d="M550 805v-105h-50v-100h-50v-100h-50v-100h-50v-100h-50v-100h-100v200h50v100h50v100h50v100h50v105h150z" />
    <glyph glyph-name="uniE13F" unicode="&#xe13f;" 
d="M400 805v-205h-100v205h100zM300 400h100v-200h-100v200z" />
    <glyph glyph-name="uniE140" unicode="&#xe140;" 
d="M600 805v-205h-300v205h300zM200 805v-305h50v-100h250v-200h-300v100h-50v100h-50v405h100z" />
    <glyph glyph-name="uniE141" unicode="&#xe141;" 
d="M100 805h500v-605h-100v400h-300v-400h-100v605z" />
    <glyph glyph-name="uniE142" unicode="&#xe142;" 
d="M600 805v-405h-50v-100h-50v-100h-400v605h100v-405h250v100h50v200h-50v105h150z" />
    <glyph glyph-name="uniE143" unicode="&#xe143;" 
d="M200 805v-305h50v-100h200v100h50v100h100v-200h-50v-100h-50v-100h-300v100h-50v100h-50v405h100z" />
    <glyph glyph-name="uniE144" unicode="&#xe144;" 
d="M600 805v-405h-50v-100h-50v-100h-400v605h100v-405h250v100h50v305h100z" />
    <glyph glyph-name="uniE145" unicode="&#xe145;" 
d="M100 805h100v-405h400v-200h-500v605z" />
    <glyph glyph-name="uniE146" unicode="&#xe146;" 
d="M200 805v-605h-100v605h100z" />
    <glyph glyph-name="uniE147" unicode="&#xe147;" 
d="M200 805v-255h25v-100h50v-50h225v200h-100v205h200v-605h-400v100h-50v100h-50v405h100z" />
    <glyph glyph-name="uniE148" unicode="&#xe148;" 
d="M200 805v-605h-100v605h100zM600 805v-605h-100v605h100z" />
    <glyph glyph-name="uniE149" unicode="&#xe149;" 
d="M400 805v-405h100v-200h-300v200h100v405h100z" />
    <glyph glyph-name="uniE14A" unicode="&#xe14a;" 
d="M500 805h100v-405h-50v-100h-50v-100h-300v100h-50v100h-50v200h100v-100h50v-100h200v100h50v305z" />
    <glyph glyph-name="uniE14B" unicode="&#xe14b;" 
d="M400 805v-105h50v-100h50v-100h50v-100h50v-200h-100v100h-50v100h-50v100h-50v100h-50v100h-50v105h150zM200 805v-605h-100v605h100z" />
    <glyph glyph-name="uniE14C" unicode="&#xe14c;" 
d="M600 200h-500v605h100v-405h400v-200z" />
    <glyph glyph-name="uniE14D" unicode="&#xe14d;" 
d="M500 805h100v-605h-100v605zM200 805v-605h-100v605h100z" />
    <glyph glyph-name="uniE14E" unicode="&#xe14e;" 
d="M600 805v-605h-100v400h-100v100h-50v105h250zM200 805v-605h-100v605h100z" />
    <glyph glyph-name="uniE14F" unicode="&#xe14f;" 
d="M200 805v-305h50v-100h200v100h50v305h100v-405h-50v-100h-50v-100h-300v100h-50v100h-50v405h100z" />
    <glyph glyph-name="uniE150" unicode="&#xe150;" 
d="M200 805v-605h-100v605h100z" />
    <glyph glyph-name="uniE151" unicode="&#xe151;" 
d="M350 400v200h-50v205h100v-105l100 1v104h100v-205h-50v-200h50v-200h-100v100h-100v-100h-200v100h-50v100h-50v405h100v-305h50v-100h100z" />
    <glyph glyph-name="uniE152" unicode="&#xe152;" 
d="M200 805v-605h-100v605h100zM400 805v-105h50v-100h50v-100h50v-100h50v-200h-100v100h-50v100h-50v100h-50v100h-50v205h100z" />
    <glyph glyph-name="uniE153" unicode="&#xe153;" 
d="M600 805v-405h-50v-100h-50v-100h-300v100h-50v100h-50v200h100v-100h50v-100h200v100h50v200h-50v105h150z" />
    <glyph glyph-name="uniE154" unicode="&#xe154;" 
d="M400 805v-605h-100v605h100z" />
    <glyph glyph-name="uniE155" unicode="&#xe155;" 
d="M500 805h100v-405h-50v-100h-50v-100h-300v100h-50v100h-50v405h100v-305h50v-100h200v100h50v305z" />
    <glyph glyph-name="uniE156" unicode="&#xe156;" 
d="M500 805v-205h-50v-100h-50v-300h-100v300h-50v100h-50v205h100v-105h100v105h100z" />
    <glyph glyph-name="uniE157" unicode="&#xe157;" 
d="M400 500h100v305h100v-405h-50v-100h-50v-100h-100v100h-100v-100h-100v100h-50v100h-50v405h100v-305h100v305h100v-305z" />
    <glyph glyph-name="uniE158" unicode="&#xe158;" 
d="M500 805v-105h50v-100h50v-400h-100v300h-50v100h-50v100h-100v-100h-50v-100h-50v-300h-100v400h50v100h50v105h300z" />
    <glyph glyph-name="uniE159" unicode="&#xe159;" 
d="M400 805v-605h-100v605h100z" />
    <glyph glyph-name="uniE15A" unicode="&#xe15a;" 
d="M350 805v-105h-50v-100h-50v-100h-50v-100h400v-200h-500v400h50v100h50v105h150z" />
    <glyph glyph-name="uniE15B" unicode="&#xe15b;" 
d="M300 805v-105h50v-100h50v-200h-100v100h-50v100h-50v205h100z" />
    <glyph glyph-name="uniE15C" unicode="&#xe15c;" 
d="M500 805v-105h50v-100h50v-200h-100v100h-50v100h-50v100h-50v105h150z" />
    <glyph glyph-name="uniE15D" unicode="&#xe15d;" 
d="M500 805v-205h-50v-100h-50v-100h-100v200h50v100h50v105h100z" />
    <glyph glyph-name="uniE15E" unicode="&#xe15e;" 
d="M400 805v-405h-100v405h100z" />
    <glyph glyph-name="uniE15F" unicode="&#xe15f;" 
d="M100 200h500v-200h-500v200z" />
    <glyph glyph-name="uniE160" unicode="&#xe160;" 
 />
    <glyph glyph-name="uniE161" unicode="&#xe161;" 
d="M250 600v-200h250v200h-250zM600 805v-605h-400v100h-50v100h-50v200h50v100h50v105h400z" />
    <glyph glyph-name="uniE162" unicode="&#xe162;" 
d="M200 805v-405h250v100h50v305h100v-405h-50v-100h-50v-100h-400v605h100z" />
    <glyph glyph-name="uniE163" unicode="&#xe163;" 
d="M200 805v-305h50v-100h350v-200h-400v100h-50v100h-50v405h100z" />
    <glyph glyph-name="uniE164" unicode="&#xe164;" 
d="M200 805v-305h50v-100h250v405h100v-605h-400v100h-50v100h-50v405h100z" />
    <glyph glyph-name="uniE165" unicode="&#xe165;" 
d="M600 805v-205h-400v-100h50v-100h250v-200h-300v100h-50v100h-50v405h500z" />
    <glyph glyph-name="uniE166" unicode="&#xe166;" 
d="M400 805v-605h-100v605h100z" />
    <glyph glyph-name="uniE167" unicode="&#xe167;" 
d="M200 805v-305h50v-100h250v405h100v-805h-50v-100h-50v-100h-300v200h250v100h50v100h-300v100h-50v100h-50v405h100z" />
    <glyph glyph-name="uniE168" unicode="&#xe168;" 
d="M600 805v-605h-100v605h100zM200 805v-605h-100v605h100z" />
    <glyph glyph-name="uniE169" unicode="&#xe169;" 
d="M400 805v-405h100v-200h-300v200h100v405h100z" />
    <glyph glyph-name="uniE16A" unicode="&#xe16a;" 
d="M250 100h50v705h100v-805h-50v-100h-50v-100h-100v200h50v100z" />
    <glyph glyph-name="uniE16B" unicode="&#xe16b;" 
d="M450 805v-205h50v-100h50v-100h50v-200h-100v100h-50v100h-50v100h-50v100h-50v-400h-100v605h250z" />
    <glyph glyph-name="uniE16C" unicode="&#xe16c;" 
d="M400 805v-405h100v-200h-300v200h100v405h100z" />
    <glyph glyph-name="uniE16D" unicode="&#xe16d;" 
d="M200 805v-605h-100v605h100zM600 805v-605h-100v605h100zM400 805v-605h-100v605h100z" />
    <glyph glyph-name="uniE16E" unicode="&#xe16e;" 
d="M200 805v-605h-100v605h100zM600 805v-605h-100v605h100z" />
    <glyph glyph-name="uniE16F" unicode="&#xe16f;" 
d="M600 805v-405h-50v-100h-50v-100h-300v100h-50v100h-50v405h100v-305h50v-100h200v100h50v305h100z" />
    <glyph glyph-name="uniE170" unicode="&#xe170;" 
d="M600 805v-405h-50v-100h-50v-100h-300v-400h-100v1005h100v-405h250v100h50v305h100z" />
    <glyph glyph-name="uniE171" unicode="&#xe171;" 
d="M600 805v-1005h-100v400h-300v100h-50v100h-50v405h100v-305h50v-100h250v405h100z" />
    <glyph glyph-name="uniE172" unicode="&#xe172;" 
d="M300 805v-605h-100v605h100z" />
    <glyph glyph-name="uniE173" unicode="&#xe173;" 
d="M500 805v-105h50v-100h50v-200h-50v-100h-50v-100h-400v200h350v200h-250v100h-50v105h350z" />
    <glyph glyph-name="uniE174" unicode="&#xe174;" 
d="M400 805v-305h50v-100h50v-200h-100v100h-50v100h-50v405h100z" />
    <glyph glyph-name="uniE175" unicode="&#xe175;" 
d="M500 805h100v-605h-400v100h-50v100h-50v405h100v-305h50v-100h250v405z" />
    <glyph glyph-name="uniE176" unicode="&#xe176;" 
d="M300 805v-305h100v305h150v-105h-50v-300h-50v-100h-50v-100h-100v100h-50v100h-50v300h-50v105h150z" />
    <glyph glyph-name="uniE177" unicode="&#xe177;" 
d="M500 300v-100h-100v100h-100v-100h-100v100h-50v100h-50v405h100v-305h100v305h100v-305h100v305h100v-405h-50v-100h-50z" />
    <glyph glyph-name="uniE178" unicode="&#xe178;" 
d="M450 805v-205h50v-100h50v-100h50v-200h-100v100h-50v100h-50v100h-100v-100h-50v-100h-50v-100h-100v200h50v100h50v100h50v205h200z" />
    <glyph glyph-name="uniE179" unicode="&#xe179;" 
d="M450 100h50v100h-300v100h-50v100h-50v405h100v-305h50v-100h250v405h100v-805h-50v-100h-50v-100h-300v200h250v100z" />
    <glyph glyph-name="uniE17A" unicode="&#xe17a;" 
d="M450 805v-105h-50v-100h-50v-100h-50v-100h300v-200h-500v200h100v200h50v100h50v105h150z" />
    <glyph glyph-name="uniE17B" unicode="&#xe17b;" 
d="M325 805v-405h175v-200h-300v605h125z" />
    <glyph glyph-name="uniE17C" unicode="&#xe17c;" 
d="M200 805h100v-605h-100v605zM400 805h100v-605h-100v605z" />
    <glyph glyph-name="uniE17D" unicode="&#xe17d;" 
d="M500 805v-605h-300v200h175v405h125z" />
    <glyph glyph-name="uniE17E" unicode="&#xe17e;" 
 />
    <glyph glyph-name="uniE17F" unicode="&#xe17f;" 
 />
    <glyph glyph-name="uniE180" unicode="&#xe180;" 
 />
    <glyph glyph-name="uniE181" unicode="&#xe181;" 
 />
    <glyph glyph-name="uniE182" unicode="&#xe182;" 
 />
    <glyph glyph-name="uniE183" unicode="&#xe183;" 
 />
    <glyph glyph-name="uniE184" unicode="&#xe184;" 
 />
    <glyph glyph-name="uniE185" unicode="&#xe185;" 
 />
    <glyph glyph-name="uniE186" unicode="&#xe186;" 
 />
    <glyph glyph-name="uniE187" unicode="&#xe187;" 
 />
    <glyph glyph-name="uniE188" unicode="&#xe188;" 
 />
    <glyph glyph-name="uniE189" unicode="&#xe189;" 
 />
    <glyph glyph-name="uniE18A" unicode="&#xe18a;" 
 />
    <glyph glyph-name="uniE18B" unicode="&#xe18b;" 
 />
    <glyph glyph-name="uniE18C" unicode="&#xe18c;" 
 />
    <glyph glyph-name="uniE18D" unicode="&#xe18d;" 
 />
    <glyph glyph-name="uniE18E" unicode="&#xe18e;" 
 />
    <glyph glyph-name="uniE18F" unicode="&#xe18f;" 
 />
    <glyph glyph-name="uniE190" unicode="&#xe190;" 
 />
    <glyph glyph-name="uniE191" unicode="&#xe191;" 
 />
    <glyph glyph-name="uniE192" unicode="&#xe192;" 
 />
    <glyph glyph-name="uniE193" unicode="&#xe193;" 
 />
    <glyph glyph-name="uniE194" unicode="&#xe194;" 
 />
    <glyph glyph-name="uniE195" unicode="&#xe195;" 
 />
    <glyph glyph-name="uniE196" unicode="&#xe196;" 
 />
    <glyph glyph-name="uniE197" unicode="&#xe197;" 
 />
    <glyph glyph-name="uniE198" unicode="&#xe198;" 
 />
    <glyph glyph-name="uniE199" unicode="&#xe199;" 
 />
    <glyph glyph-name="uniE19A" unicode="&#xe19a;" 
 />
    <glyph glyph-name="uniE19B" unicode="&#xe19b;" 
 />
    <glyph glyph-name="uniE19C" unicode="&#xe19c;" 
 />
    <glyph glyph-name="uniE19D" unicode="&#xe19d;" 
 />
    <glyph glyph-name="uniE19E" unicode="&#xe19e;" 
 />
    <glyph glyph-name="uniE19F" unicode="&#xe19f;" 
 />
    <glyph glyph-name="uniE1A0" unicode="&#xe1a0;" 
 />
    <glyph glyph-name="uniE1A1" unicode="&#xe1a1;" 
 />
    <glyph glyph-name="uniE1A2" unicode="&#xe1a2;" 
 />
    <glyph glyph-name="uniE1A3" unicode="&#xe1a3;" 
d="M200 805h100v-405h300v-200h-500v200h100v405z" />
    <glyph glyph-name="uniE1A4" unicode="&#xe1a4;" 
 />
    <glyph glyph-name="uniE1A5" unicode="&#xe1a5;" 
 />
    <glyph glyph-name="uniE1A6" unicode="&#xe1a6;" 
 />
    <glyph glyph-name="uniE1A7" unicode="&#xe1a7;" 
 />
    <glyph glyph-name="uniE1A8" unicode="&#xe1a8;" 
 />
    <glyph glyph-name="uniE1A9" unicode="&#xe1a9;" 
 />
    <glyph glyph-name="uniE1AA" unicode="&#xe1aa;" 
 />
    <glyph glyph-name="uniE1AB" unicode="&#xe1ab;" 
 />
    <glyph glyph-name="uniE1AC" unicode="&#xe1ac;" 
 />
    <glyph glyph-name="uniE1AD" unicode="&#xe1ad;" 
 />
    <glyph glyph-name="uniE1AE" unicode="&#xe1ae;" 
 />
    <glyph glyph-name="uniE1AF" unicode="&#xe1af;" 
 />
    <glyph glyph-name="uniE1B0" unicode="&#xe1b0;" 
 />
    <glyph glyph-name="uniE1B1" unicode="&#xe1b1;" 
 />
    <glyph glyph-name="uniE1B2" unicode="&#xe1b2;" 
 />
    <glyph glyph-name="uniE1B3" unicode="&#xe1b3;" 
 />
    <glyph glyph-name="uniE1B4" unicode="&#xe1b4;" 
 />
    <glyph glyph-name="uniE1B5" unicode="&#xe1b5;" 
 />
    <glyph glyph-name="uniE1B6" unicode="&#xe1b6;" 
d="M100 805h500v-605h-500v605z" />
    <glyph glyph-name="uniE1B7" unicode="&#xe1b7;" 
 />
    <glyph glyph-name="uniE1B8" unicode="&#xe1b8;" 
 />
    <glyph glyph-name="uniE1B9" unicode="&#xe1b9;" 
 />
    <glyph glyph-name="uniE1BA" unicode="&#xe1ba;" 
 />
    <glyph glyph-name="uniE1BB" unicode="&#xe1bb;" 
 />
    <glyph glyph-name="uniE1BC" unicode="&#xe1bc;" 
d="M300 600h-100v205h100v-205zM600 -200h-100v200h-200v400h50v100h50v100h100v205h100v-1005zM500 200v200h-50v-100h-50v-100h100z" />
    <glyph glyph-name="uniE1BD" unicode="&#xe1bd;" 
d="M200 600h-100v205h100v-205zM600 -200h-300v400h50v100h50v100h50v200h-150v205h200v-105h50v-100h50v-200h-50v-100h-50v-100h-50v-100h-50v-100h200v-200z" />
    <glyph glyph-name="uniE1BE" unicode="&#xe1be;" 
d="M350 805v-105h-50v-100h-200v205h250zM600 -200h-100v200h-200v400h50v100h50v100h100v205h100v-1005zM500 200v200h-50v-100h-50v-100h100z" />
    <glyph glyph-name="uniE1BF" unicode="&#xe1bf;" 
 />
    <glyph glyph-name="uniE1C0" unicode="&#xe1c0;" 
 />
    <glyph glyph-name="uniE1C1" unicode="&#xe1c1;" 
 />
    <glyph glyph-name="uniE1C2" unicode="&#xe1c2;" 
 />
    <glyph glyph-name="uniE1C3" unicode="&#xe1c3;" 
 />
    <glyph glyph-name="uniE1C4" unicode="&#xe1c4;" 
 />
    <glyph glyph-name="uniE1C5" unicode="&#xe1c5;" 
 />
    <glyph glyph-name="uniE1C6" unicode="&#xe1c6;" 
 />
    <glyph glyph-name="uniE1C7" unicode="&#xe1c7;" 
 />
    <glyph glyph-name="uniE1C8" unicode="&#xe1c8;" 
 />
    <glyph glyph-name="uniE1C9" unicode="&#xe1c9;" 
 />
    <glyph glyph-name="uniE1CA" unicode="&#xe1ca;" 
 />
    <glyph glyph-name="uniE1CB" unicode="&#xe1cb;" 
 />
    <glyph glyph-name="uniE1CC" unicode="&#xe1cc;" 
 />
    <glyph glyph-name="uniE1CD" unicode="&#xe1cd;" 
 />
    <glyph glyph-name="uniE1CE" unicode="&#xe1ce;" 
 />
    <glyph glyph-name="uniE1CF" unicode="&#xe1cf;" 
 />
    <glyph glyph-name="uniE1D0" unicode="&#xe1d0;" 
 />
    <glyph glyph-name="uniE1D1" unicode="&#xe1d1;" 
 />
    <glyph glyph-name="uniE1D2" unicode="&#xe1d2;" 
 />
    <glyph glyph-name="uniE1D3" unicode="&#xe1d3;" 
 />
    <glyph glyph-name="uniE1D4" unicode="&#xe1d4;" 
 />
    <glyph glyph-name="uniE1D5" unicode="&#xe1d5;" 
 />
    <glyph glyph-name="uniE1D6" unicode="&#xe1d6;" 
 />
    <glyph glyph-name="uniE1D7" unicode="&#xe1d7;" 
 />
    <glyph glyph-name="uniE1D8" unicode="&#xe1d8;" 
 />
    <glyph glyph-name="uniE1D9" unicode="&#xe1d9;" 
 />
    <glyph glyph-name="uniE1DA" unicode="&#xe1da;" 
 />
    <glyph glyph-name="uniE1DB" unicode="&#xe1db;" 
 />
    <glyph glyph-name="uniE1DC" unicode="&#xe1dc;" 
 />
    <glyph glyph-name="uniE1DD" unicode="&#xe1dd;" 
 />
    <glyph glyph-name="uniE1DE" unicode="&#xe1de;" 
 />
    <glyph glyph-name="uniE1DF" unicode="&#xe1df;" 
 />
    <glyph glyph-name="uniE1E0" unicode="&#xe1e0;" 
 />
    <glyph glyph-name="uniE1E1" unicode="&#xe1e1;" 
 />
    <glyph glyph-name="uniE1E2" unicode="&#xe1e2;" 
 />
    <glyph glyph-name="uniE1E3" unicode="&#xe1e3;" 
 />
    <glyph glyph-name="uniE1E4" unicode="&#xe1e4;" 
 />
    <glyph glyph-name="uniE1E5" unicode="&#xe1e5;" 
 />
    <glyph glyph-name="uniE1E6" unicode="&#xe1e6;" 
 />
    <glyph glyph-name="uniE1E7" unicode="&#xe1e7;" 
 />
    <glyph glyph-name="uniE1E8" unicode="&#xe1e8;" 
 />
    <glyph glyph-name="uniE1E9" unicode="&#xe1e9;" 
 />
    <glyph glyph-name="uniE1EA" unicode="&#xe1ea;" 
 />
    <glyph glyph-name="uniE1EB" unicode="&#xe1eb;" 
 />
    <glyph glyph-name="uniE1EC" unicode="&#xe1ec;" 
 />
    <glyph glyph-name="uniE1ED" unicode="&#xe1ed;" 
 />
    <glyph glyph-name="uniE1EE" unicode="&#xe1ee;" 
 />
    <glyph glyph-name="uniE1EF" unicode="&#xe1ef;" 
 />
    <glyph glyph-name="uniE1F0" unicode="&#xe1f0;" 
 />
    <glyph glyph-name="uniE1F1" unicode="&#xe1f1;" 
 />
    <glyph glyph-name="uniE1F2" unicode="&#xe1f2;" 
 />
    <glyph glyph-name="uniE1F3" unicode="&#xe1f3;" 
 />
    <glyph glyph-name="uniE1F4" unicode="&#xe1f4;" 
 />
    <glyph glyph-name="uniE1F5" unicode="&#xe1f5;" 
 />
    <glyph glyph-name="uniE1F6" unicode="&#xe1f6;" 
 />
    <glyph glyph-name="uniE1F7" unicode="&#xe1f7;" 
d="M300 600h100v-200h-100v200z" />
    <glyph glyph-name="uniE1F8" unicode="&#xe1f8;" 
 />
    <glyph glyph-name="uniE1F9" unicode="&#xe1f9;" 
 />
    <glyph glyph-name="uniE1FA" unicode="&#xe1fa;" 
 />
    <glyph glyph-name="uniE1FB" unicode="&#xe1fb;" 
 />
    <glyph glyph-name="uniE1FC" unicode="&#xe1fc;" 
 />
    <glyph glyph-name="uniE1FD" unicode="&#xe1fd;" 
 />
    <glyph glyph-name="uniE1FE" unicode="&#xe1fe;" 
 />
    <glyph glyph-name="uniE1FF" unicode="&#xe1ff;" 
 />
    <glyph glyph-name="uniE200" unicode="&#xe200;" 
 />
    <glyph glyph-name="uniE201" unicode="&#xe201;" 
d="M-10 805h310v-305h-310v305z" />
    <glyph glyph-name="uniE202" unicode="&#xe202;" 
d="M300 805h310v-305h-310v305z" />
    <glyph glyph-name="uniE203" unicode="&#xe203;" 
d="M-10 805h620v-305h-620v305z" />
    <glyph glyph-name="uniE204" unicode="&#xe204;" 
d="M-10 500h310v-400h-310v400z" />
    <glyph glyph-name="uniE205" unicode="&#xe205;" 
d="M-10 803l310 2v-705l-310 -2v705z" />
    <glyph glyph-name="uniE206" unicode="&#xe206;" 
d="M300 805h310v-305l-309 1zM-10 500h310v-400h-310v400z" />
    <glyph glyph-name="uniE207" unicode="&#xe207;" 
d="M610 500h-310v-399h-310v705h620v-306z" />
    <glyph glyph-name="uniE208" unicode="&#xe208;" 
d="M300 500h310v-400h-310v400z" />
    <glyph glyph-name="uniE209" unicode="&#xe209;" 
d="M-10 805h310v-304l-310 -1v305zM300 500h310v-400h-310v400z" />
    <glyph glyph-name="uniE20A" unicode="&#xe20a;" 
d="M300 805h310v-705h-310v705z" />
    <glyph glyph-name="uniE20B" unicode="&#xe20b;" 
d="M-10 805h620v-705h-310v400h-310v305z" />
    <glyph glyph-name="uniE20C" unicode="&#xe20c;" 
d="M-10 500h620v-400h-620v400z" />
    <glyph glyph-name="uniE20D" unicode="&#xe20d;" 
d="M300 805v-305h310v-400h-620v705h310z" />
    <glyph glyph-name="uniE20E" unicode="&#xe20e;" 
d="M300 500v305h310v-705h-620v400h310z" />
    <glyph glyph-name="uniE20F" unicode="&#xe20f;" 
d="M-10 805h620v-705h-620v705z" />
    <glyph glyph-name="uniE210" unicode="&#xe210;" 
d="M-10 100h310v-300h-310v300z" />
    <glyph glyph-name="uniE211" unicode="&#xe211;" 
d="M-10 100h310v-300h-310v300zM-10 805h310v-305h-310v305z" />
    <glyph glyph-name="uniE212" unicode="&#xe212;" 
d="M-10 100h310v-300h-310v300zM300 805h310v-305h-310v305z" />
    <glyph glyph-name="uniE213" unicode="&#xe213;" 
d="M-10 100h310v-300h-310v300zM-10 805h620v-305h-620v305z" />
    <glyph glyph-name="uniE214" unicode="&#xe214;" 
d="M-10 500h310v-700h-310v700z" />
    <glyph glyph-name="uniE215" unicode="&#xe215;" 
d="M-10 805h310v-1005h-310v1005z" />
    <glyph glyph-name="uniE216" unicode="&#xe216;" 
d="M300 805h310v-305l-310 1v304zM-10 500h310v-700h-310v700z" />
    <glyph glyph-name="uniE217" unicode="&#xe217;" 
d="M610 500h-310v-700h-310v1006h620v-306z" />
    <glyph glyph-name="uniE218" unicode="&#xe218;" 
d="M-10 100l310 -1v-299h-310v300zM300 500h310v-400h-310v400z" />
    <glyph glyph-name="uniE219" unicode="&#xe219;" 
d="M-10 100l310 -1v-299h-310v300zM-10 805h310v-304l-310 -1v305zM300 500h310v-400h-310v400z" />
    <glyph glyph-name="uniE21A" unicode="&#xe21a;" 
d="M-10 100l310 -1v-299h-310v300zM300 805h310v-705h-310v705z" />
    <glyph glyph-name="uniE21B" unicode="&#xe21b;" 
d="M-10 100l310 -1v-299h-310v300zM-10 805h620v-705h-310v400h-310v305z" />
    <glyph glyph-name="uniE21C" unicode="&#xe21c;" 
d="M300 100v-300h-310v700h620v-400h-310z" />
    <glyph glyph-name="uniE21D" unicode="&#xe21d;" 
d="M300 100v-300h-310v1005h310v-305h310v-400h-310z" />
    <glyph glyph-name="uniE21E" unicode="&#xe21e;" 
d="M300 100v-300h-310v700h310v305h310v-705h-310z" />
    <glyph glyph-name="uniE21F" unicode="&#xe21f;" 
d="M300 100v-300h-310v1005h620v-705h-310z" />
    <glyph glyph-name="uniE220" unicode="&#xe220;" 
d="M300 100h310v-300h-310v300z" />
    <glyph glyph-name="uniE221" unicode="&#xe221;" 
d="M300 100h310v-300h-310v300zM-10 805h310v-305h-310v305z" />
    <glyph glyph-name="uniE222" unicode="&#xe222;" 
d="M300 100h310v-300h-310v300zM300 805h310v-305h-310v305z" />
    <glyph glyph-name="uniE223" unicode="&#xe223;" 
d="M300 100h310v-300h-310v300zM-10 805h620v-305h-620v305z" />
    <glyph glyph-name="uniE224" unicode="&#xe224;" 
d="M300 99l310 1v-300h-310v299zM-10 500h310v-400h-310v400z" />
    <glyph glyph-name="uniE225" unicode="&#xe225;" 
d="M300 99l310 1v-300h-310v299zM-10 805h310v-705h-310v705z" />
    <glyph glyph-name="uniE226" unicode="&#xe226;" 
d="M300 99l310 1v-300h-310v299zM300 805h310v-305l-310 1v304zM-10 500h310v-400h-310v400z" />
    <glyph glyph-name="uniE227" unicode="&#xe227;" 
d="M300 100h310v-300h-310v300zM610 500h-310v-399h-310v705h620v-306z" />
    <glyph glyph-name="uniE228" unicode="&#xe228;" 
d="M300 500h310v-700h-310v700z" />
    <glyph glyph-name="uniE229" unicode="&#xe229;" 
d="M-10 805h310v-304l-310 -1v305zM300 500h310v-700h-310v700z" />
    <glyph glyph-name="uniE22A" unicode="&#xe22a;" 
d="M300 805h310v-1005h-310v1005z" />
    <glyph glyph-name="uniE22B" unicode="&#xe22b;" 
d="M-10 805h620v-1005h-310v700h-310v305z" />
    <glyph glyph-name="uniE22C" unicode="&#xe22c;" 
d="M300 100h-310v400h620v-700h-310v300z" />
    <glyph glyph-name="uniE22D" unicode="&#xe22d;" 
d="M300 805v-305h310v-700h-310v300h-310v705h310z" />
    <glyph glyph-name="uniE22E" unicode="&#xe22e;" 
d="M300 500v305h310v-1005h-310v300h-310v400h310z" />
    <glyph glyph-name="uniE22F" unicode="&#xe22f;" 
d="M-10 805h620v-1005h-310v300h-310v705z" />
    <glyph glyph-name="uniE230" unicode="&#xe230;" 
d="M-10 100h620v-300h-620v300z" />
    <glyph glyph-name="uniE231" unicode="&#xe231;" 
d="M-10 100h620v-300h-620v300zM-10 805h310v-305h-310v305z" />
    <glyph glyph-name="uniE232" unicode="&#xe232;" 
d="M-10 100h620v-300h-620v300zM300 805h310v-305h-310v305z" />
    <glyph glyph-name="uniE233" unicode="&#xe233;" 
d="M-10 100h620v-300h-620v300zM-10 805h620v-305h-620v305z" />
    <glyph glyph-name="uniE234" unicode="&#xe234;" 
d="M-10 500h310v-400h310v-300h-620v700z" />
    <glyph glyph-name="uniE235" unicode="&#xe235;" 
d="M-10 805h310v-705h310v-300h-620v1005z" />
    <glyph glyph-name="uniE236" unicode="&#xe236;" 
d="M300 805h310v-305l-310 1v304zM-10 500h310v-400h310v-300h-620v700z" />
    <glyph glyph-name="uniE237" unicode="&#xe237;" 
d="M610 500h-310v-400h310v-300l-620 1v1005h620v-306z" />
    <glyph glyph-name="uniE238" unicode="&#xe238;" 
d="M610 -200h-620v300h310v400h310v-700z" />
    <glyph glyph-name="uniE239" unicode="&#xe239;" 
d="M300 499l310 1v-700h-620v300h310v399zM-10 805h310v-305h-310v305z" />
    <glyph glyph-name="uniE23A" unicode="&#xe23a;" 
d="M610 -200h-620v300h310v705h310v-1005z" />
    <glyph glyph-name="uniE23B" unicode="&#xe23b;" 
d="M300 100v400h-310v305h620v-1005h-620v300h310z" />
    <glyph glyph-name="uniE23C" unicode="&#xe23c;" 
d="M610 -200h-620v700h620v-700z" />
    <glyph glyph-name="uniE23D" unicode="&#xe23d;" 
d="M610 -200h-620v1005h310v-305h310v-700z" />
    <glyph glyph-name="uniE23E" unicode="&#xe23e;" 
d="M610 -200h-620v700h310v305h310v-1005z" />
    <glyph glyph-name="uniE23F" unicode="&#xe23f;" 
d="M610 -200h-620v1005h620v-1005z" />
    <glyph glyph-name="uniE240" unicode="&#xe240;" 
 />
    <glyph glyph-name="uniE241" unicode="&#xe241;" 
d="M-10 805h310v-605h-310v605z" />
    <glyph glyph-name="uniE242" unicode="&#xe242;" 
d="M300 805h310v-605h-310v605z" />
    <glyph glyph-name="uniE243" unicode="&#xe243;" 
d="M-10 805h620v-605h-620v605z" />
    <glyph glyph-name="uniE244" unicode="&#xe244;" 
d="M-10 200h310v-400h-310v400z" />
    <glyph glyph-name="uniE245" unicode="&#xe245;" 
d="M-10 805h310v-1005h-310v1005z" />
    <glyph glyph-name="uniE246" unicode="&#xe246;" 
d="M300 805h310v-605l-310 1v604zM-10 200h310v-400h-310v400z" />
    <glyph glyph-name="uniE247" unicode="&#xe247;" 
d="M610 200h-310v-400h-310v1005h620v-605z" />
    <glyph glyph-name="uniE248" unicode="&#xe248;" 
d="M300 200h310v-400h-310v400z" />
    <glyph glyph-name="uniE249" unicode="&#xe249;" 
d="M-10 805h310v-604l-310 -1v605zM300 200h310v-400h-310v400z" />
    <glyph glyph-name="uniE24A" unicode="&#xe24a;" 
d="M300 805h310v-1005h-310v1005z" />
    <glyph glyph-name="uniE24B" unicode="&#xe24b;" 
d="M-10 805h620v-1005h-310v400h-310v605z" />
    <glyph glyph-name="uniE24C" unicode="&#xe24c;" 
d="M-10 200h620v-400h-620v400z" />
    <glyph glyph-name="uniE24D" unicode="&#xe24d;" 
d="M300 805v-605h310v-400h-620v1005h310z" />
    <glyph glyph-name="uniE24E" unicode="&#xe24e;" 
d="M300 200v605h310v-1005h-620v400h310z" />
    <glyph glyph-name="uniE24F" unicode="&#xe24f;" 
d="M-10 805h620v-1005h-620v1005z" />
    <glyph glyph-name="uniE250" unicode="&#xe250;" 
 />
    <glyph glyph-name="uniE251" unicode="&#xe251;" 
d="M-10 805h310v-605h-310v605z" />
    <glyph glyph-name="uniE252" unicode="&#xe252;" 
d="M300 805h310v-605h-310v605z" />
    <glyph glyph-name="uniE253" unicode="&#xe253;" 
d="M-10 805h620v-605h-620v605z" />
    <glyph glyph-name="uniE254" unicode="&#xe254;" 
d="M-10 200h310v-400h-310v400z" />
    <glyph glyph-name="uniE255" unicode="&#xe255;" 
d="M-10 805h310v-1005h-310v1005z" />
    <glyph glyph-name="uniE256" unicode="&#xe256;" 
d="M300 805h310v-605l-310 1v604zM-10 200h310v-400h-310v400z" />
    <glyph glyph-name="uniE257" unicode="&#xe257;" 
d="M610 200h-310v-400h-310v1005h620v-605z" />
    <glyph glyph-name="uniE258" unicode="&#xe258;" 
d="M300 200h310v-400h-310v400z" />
    <glyph glyph-name="uniE259" unicode="&#xe259;" 
d="M-10 805h310v-604l-310 -1v605zM300 200h310v-400h-310v400z" />
    <glyph glyph-name="uniE25A" unicode="&#xe25a;" 
d="M300 805h310v-1005h-310v1005z" />
    <glyph glyph-name="uniE25B" unicode="&#xe25b;" 
d="M-10 805h620v-1005h-310v400h-310v605z" />
    <glyph glyph-name="uniE25C" unicode="&#xe25c;" 
d="M-10 200h620v-400h-620v400z" />
    <glyph glyph-name="uniE25D" unicode="&#xe25d;" 
d="M300 805v-605h310v-400h-620v1005h310z" />
    <glyph glyph-name="uniE25E" unicode="&#xe25e;" 
d="M300 200v605h310v-1005h-620v400h310z" />
    <glyph glyph-name="uniE25F" unicode="&#xe25f;" 
d="M-10 805h620v-1005h-620v1005z" />
    <glyph glyph-name="uniE260" unicode="&#xe260;" 
 />
    <glyph glyph-name="uniE261" unicode="&#xe261;" 
d="M-10 805h310v-605h-310v605z" />
    <glyph glyph-name="uniE262" unicode="&#xe262;" 
d="M300 805h310v-605h-310v605z" />
    <glyph glyph-name="uniE263" unicode="&#xe263;" 
d="M-10 805h620v-605h-620v605z" />
    <glyph glyph-name="uniE264" unicode="&#xe264;" 
d="M-10 200h310v-400h-310v400z" />
    <glyph glyph-name="uniE265" unicode="&#xe265;" 
d="M-10 805h310v-1005h-310v1005z" />
    <glyph glyph-name="uniE266" unicode="&#xe266;" 
d="M300 805h310v-605l-310 1v604zM-10 200h310v-400h-310v400z" />
    <glyph glyph-name="uniE267" unicode="&#xe267;" 
d="M610 200h-310v-400h-310v1005h620v-605z" />
    <glyph glyph-name="uniE268" unicode="&#xe268;" 
d="M300 200h310v-400h-310v400z" />
    <glyph glyph-name="uniE269" unicode="&#xe269;" 
d="M-10 805h310v-604l-310 -1v605zM300 200h310v-400h-310v400z" />
    <glyph glyph-name="uniE26A" unicode="&#xe26a;" 
d="M300 805h310v-1005h-310v1005z" />
    <glyph glyph-name="uniE26B" unicode="&#xe26b;" 
d="M-10 805h620v-1005h-310v400h-310v605z" />
    <glyph glyph-name="uniE26C" unicode="&#xe26c;" 
d="M-10 200h620v-400h-620v400z" />
    <glyph glyph-name="uniE26D" unicode="&#xe26d;" 
d="M300 805v-605h310v-400h-620v1005h310z" />
    <glyph glyph-name="uniE26E" unicode="&#xe26e;" 
d="M300 200v605h310v-1005h-620v400h310z" />
    <glyph glyph-name="uniE26F" unicode="&#xe26f;" 
d="M-10 805h620v-1005h-620v1005z" />
    <glyph glyph-name="uniE270" unicode="&#xe270;" 
 />
    <glyph glyph-name="uniE271" unicode="&#xe271;" 
d="M-10 805h310v-605h-310v605z" />
    <glyph glyph-name="uniE272" unicode="&#xe272;" 
d="M300 805h310v-605h-310v605z" />
    <glyph glyph-name="uniE273" unicode="&#xe273;" 
d="M-10 805h620v-605h-620v605z" />
    <glyph glyph-name="uniE274" unicode="&#xe274;" 
d="M-10 200h310v-400h-310v400z" />
    <glyph glyph-name="uniE275" unicode="&#xe275;" 
d="M-10 805h310v-1005h-310v1005z" />
    <glyph glyph-name="uniE276" unicode="&#xe276;" 
d="M300 805h310v-605l-310 1v604zM-10 200h310v-400h-310v400z" />
    <glyph glyph-name="uniE277" unicode="&#xe277;" 
d="M610 200h-310v-400h-310v1005h620v-605z" />
    <glyph glyph-name="uniE278" unicode="&#xe278;" 
d="M300 200h310v-400h-310v400z" />
    <glyph glyph-name="uniE279" unicode="&#xe279;" 
d="M-10 805h310v-604l-310 -1v605zM300 200h310v-400h-310v400z" />
    <glyph glyph-name="uniE27A" unicode="&#xe27a;" 
d="M300 805h310v-1005h-310v1005z" />
    <glyph glyph-name="uniE27B" unicode="&#xe27b;" 
d="M-10 805h620v-1005h-310v400h-310v605z" />
    <glyph glyph-name="uniE27C" unicode="&#xe27c;" 
d="M-10 200h620v-400h-620v400z" />
    <glyph glyph-name="uniE27D" unicode="&#xe27d;" 
d="M300 805v-605h310v-400h-620v1005h310z" />
    <glyph glyph-name="uniE27E" unicode="&#xe27e;" 
d="M300 200v605h310v-1005h-620v400h310z" />
    <glyph glyph-name="uniE27F" unicode="&#xe27f;" 
d="M-10 805h620v-1005h-620v1005z" />
    <glyph glyph-name="uniE280" unicode="&#xe280;" 
 />
    <glyph glyph-name="uniE281" unicode="&#xe281;" 
 />
    <glyph glyph-name="uniE282" unicode="&#xe282;" 
 />
    <glyph glyph-name="uniE283" unicode="&#xe283;" 
 />
    <glyph glyph-name="uniE284" unicode="&#xe284;" 
d="M-10 805h310v-405h-310v405z" />
    <glyph glyph-name="uniE285" unicode="&#xe285;" 
d="M-10 805h310v-405h-310v405z" />
    <glyph glyph-name="uniE286" unicode="&#xe286;" 
d="M-10 805h310v-405h-310v405z" />
    <glyph glyph-name="uniE287" unicode="&#xe287;" 
d="M-10 805h310v-405h-310v405z" />
    <glyph glyph-name="uniE288" unicode="&#xe288;" 
d="M300 805h310v-405h-310v405z" />
    <glyph glyph-name="uniE289" unicode="&#xe289;" 
d="M-10 805h310v-405h-310v405z" />
    <glyph glyph-name="uniE28A" unicode="&#xe28a;" 
d="M-10 805h310v-405h-310v405z" />
    <glyph glyph-name="uniE28B" unicode="&#xe28b;" 
d="M-10 805h310v-405h-310v405z" />
    <glyph glyph-name="uniE28C" unicode="&#xe28c;" 
d="M-10 805h620v-405h-620v405z" />
    <glyph glyph-name="uniE28D" unicode="&#xe28d;" 
d="M-10 805h620v-405h-620v405z" />
    <glyph glyph-name="uniE28E" unicode="&#xe28e;" 
d="M-10 805h620v-405h-620v405z" />
    <glyph glyph-name="uniE28F" unicode="&#xe28f;" 
d="M-10 805h620v-405h-620v405z" />
    <glyph glyph-name="uniE290" unicode="&#xe290;" 
d="M-10 400h310v-600h-310v600z" />
    <glyph glyph-name="uniE291" unicode="&#xe291;" 
d="M-10 400h310v-600h-310v600z" />
    <glyph glyph-name="uniE292" unicode="&#xe292;" 
d="M-10 400h310v-600h-310v600z" />
    <glyph glyph-name="uniE293" unicode="&#xe293;" 
d="M-10 400h310v-600h-310v600z" />
    <glyph glyph-name="uniE294" unicode="&#xe294;" 
d="M-10 805h310v-1005h-310v1005z" />
    <glyph glyph-name="uniE295" unicode="&#xe295;" 
d="M-10 805h310v-1005h-310v1005z" />
    <glyph glyph-name="uniE296" unicode="&#xe296;" 
d="M-10 805h310v-1005h-310v1005z" />
    <glyph glyph-name="uniE297" unicode="&#xe297;" 
d="M-10 805h310v-1005h-310v1005z" />
    <glyph glyph-name="uniE298" unicode="&#xe298;" 
d="M-10 400l310 -1v-599h-310v600zM300 805h310v-405h-310v405z" />
    <glyph glyph-name="uniE299" unicode="&#xe299;" 
d="M-10 400l310 -1v-599h-310v600zM300 805h310v-405h-310v405z" />
    <glyph glyph-name="uniE29A" unicode="&#xe29a;" 
d="M-10 400l310 -1v-599h-310v600zM300 805h310v-405h-310v405z" />
    <glyph glyph-name="uniE29B" unicode="&#xe29b;" 
d="M-10 400l310 -1v-599h-310v600zM300 805h310v-405h-310v405z" />
    <glyph glyph-name="uniE29C" unicode="&#xe29c;" 
d="M300 400v-600h-310v1005h620v-405h-310z" />
    <glyph glyph-name="uniE29D" unicode="&#xe29d;" 
d="M300 400v-600h-310v1005h620v-405h-310z" />
    <glyph glyph-name="uniE29E" unicode="&#xe29e;" 
d="M300 400v-600h-310v1005h620v-405h-310z" />
    <glyph glyph-name="uniE29F" unicode="&#xe29f;" 
d="M300 400v-600h-310v1005h620v-405h-310z" />
    <glyph glyph-name="uniE2A0" unicode="&#xe2a0;" 
d="M300 400h310v-600h-310v600z" />
    <glyph glyph-name="uniE2A1" unicode="&#xe2a1;" 
d="M300 400h310v-600h-310v600z" />
    <glyph glyph-name="uniE2A2" unicode="&#xe2a2;" 
d="M300 400h310v-600h-310v600z" />
    <glyph glyph-name="uniE2A3" unicode="&#xe2a3;" 
d="M300 400h310v-600h-310v600z" />
    <glyph glyph-name="uniE2A4" unicode="&#xe2a4;" 
d="M300 399l310 1v-600h-310v599zM-10 805h310v-405h-310v405z" />
    <glyph glyph-name="uniE2A5" unicode="&#xe2a5;" 
d="M300 399l310 1v-600h-310v599zM-10 805h310v-405h-310v405z" />
    <glyph glyph-name="uniE2A6" unicode="&#xe2a6;" 
d="M300 399l310 1v-600h-310v599zM-10 805h310v-405h-310v405z" />
    <glyph glyph-name="uniE2A7" unicode="&#xe2a7;" 
d="M300 399l310 1v-600h-310v599zM-10 805h310v-405h-310v405z" />
    <glyph glyph-name="uniE2A8" unicode="&#xe2a8;" 
d="M300 805h310v-1005h-310v1005z" />
    <glyph glyph-name="uniE2A9" unicode="&#xe2a9;" 
d="M300 805h310v-1005h-310v1005z" />
    <glyph glyph-name="uniE2AA" unicode="&#xe2aa;" 
d="M300 805h310v-1005h-310v1005z" />
    <glyph glyph-name="uniE2AB" unicode="&#xe2ab;" 
d="M300 805h310v-1005h-310v1005z" />
    <glyph glyph-name="uniE2AC" unicode="&#xe2ac;" 
d="M300 400h-310v405h620v-1005h-310v600z" />
    <glyph glyph-name="uniE2AD" unicode="&#xe2ad;" 
d="M300 400h-310v405h620v-1005h-310v600z" />
    <glyph glyph-name="uniE2AE" unicode="&#xe2ae;" 
d="M300 400h-310v405h620v-1005h-310v600z" />
    <glyph glyph-name="uniE2AF" unicode="&#xe2af;" 
d="M300 400h-310v405h620v-1005h-310v600z" />
    <glyph glyph-name="uniE2B0" unicode="&#xe2b0;" 
d="M-10 400h620v-600h-620v600z" />
    <glyph glyph-name="uniE2B1" unicode="&#xe2b1;" 
d="M-10 400h620v-600h-620v600z" />
    <glyph glyph-name="uniE2B2" unicode="&#xe2b2;" 
d="M-10 400h620v-600h-620v600z" />
    <glyph glyph-name="uniE2B3" unicode="&#xe2b3;" 
d="M-10 400h620v-600h-620v600z" />
    <glyph glyph-name="uniE2B4" unicode="&#xe2b4;" 
d="M-10 805h310v-405h310v-600h-620v1005z" />
    <glyph glyph-name="uniE2B5" unicode="&#xe2b5;" 
d="M-10 805h310v-405h310v-600h-620v1005z" />
    <glyph glyph-name="uniE2B6" unicode="&#xe2b6;" 
d="M-10 805h310v-405h310v-600h-620v1005z" />
    <glyph glyph-name="uniE2B7" unicode="&#xe2b7;" 
d="M-10 805h310v-405h310v-600h-620v1005z" />
    <glyph glyph-name="uniE2B8" unicode="&#xe2b8;" 
d="M610 -200h-620v600h310v405h310v-1005z" />
    <glyph glyph-name="uniE2B9" unicode="&#xe2b9;" 
d="M610 -200h-620v600h310v405h310v-1005z" />
    <glyph glyph-name="uniE2BA" unicode="&#xe2ba;" 
d="M610 -200h-620v600h310v405h310v-1005z" />
    <glyph glyph-name="uniE2BB" unicode="&#xe2bb;" 
d="M610 -200h-620v600h310v405h310v-1005z" />
    <glyph glyph-name="uniE2BC" unicode="&#xe2bc;" 
d="M610 -200h-620v1005h620v-1005z" />
    <glyph glyph-name="uniE2BD" unicode="&#xe2bd;" 
d="M610 -200h-620v1005h620v-1005z" />
    <glyph glyph-name="uniE2BE" unicode="&#xe2be;" 
d="M610 -200h-620v1005h620v-1005z" />
    <glyph glyph-name="uniE2BF" unicode="&#xe2bf;" 
d="M610 -200h-620v1005h620v-1005z" />
    <glyph glyph-name="uniE2C0" unicode="&#xe2c0;" 
 />
    <glyph glyph-name="uniE2C1" unicode="&#xe2c1;" 
d="M100 800h200v-200h-200v200z" />
    <glyph glyph-name="uniE2C2" unicode="&#xe2c2;" 
d="M400 800h200v-200h-200v200z" />
    <glyph glyph-name="uniE2C3" unicode="&#xe2c3;" 
d="M100 800h200v-200h-200v200zM400 800h200v-200h-200v200z" />
    <glyph glyph-name="uniE2C4" unicode="&#xe2c4;" 
d="M100 500h200v-300h-200v300z" />
    <glyph glyph-name="uniE2C5" unicode="&#xe2c5;" 
d="M100 500h200v-300h-200v300zM100 800h200v-200h-200v200z" />
    <glyph glyph-name="uniE2C6" unicode="&#xe2c6;" 
d="M100 500h200v-300h-200v300zM400 800h200v-200h-200v200z" />
    <glyph glyph-name="uniE2C7" unicode="&#xe2c7;" 
d="M100 500h200v-300h-200v300zM100 800h200v-200h-200v200zM400 800h200v-200h-200v200z" />
    <glyph glyph-name="uniE2C8" unicode="&#xe2c8;" 
d="M400 500h200v-300h-200v300z" />
    <glyph glyph-name="uniE2C9" unicode="&#xe2c9;" 
d="M400 500h200v-300h-200v300zM100 800h200v-200h-200v200z" />
    <glyph glyph-name="uniE2CA" unicode="&#xe2ca;" 
d="M400 500h200v-300h-200v300zM400 800h200v-200h-200v200z" />
    <glyph glyph-name="uniE2CB" unicode="&#xe2cb;" 
d="M400 500h200v-300h-200v300zM100 800h200v-200h-200v200zM400 800h200v-200h-200v200z" />
    <glyph glyph-name="uniE2CC" unicode="&#xe2cc;" 
d="M100 500h200v-300h-200v300zM400 500h200v-300h-200v300z" />
    <glyph glyph-name="uniE2CD" unicode="&#xe2cd;" 
d="M100 500h200v-300h-200v300zM400 500h200v-300h-200v300zM100 800h200v-200h-200v200z" />
    <glyph glyph-name="uniE2CE" unicode="&#xe2ce;" 
d="M100 500h200v-300h-200v300zM400 500h200v-300h-200v300zM400 800h200v-200h-200v200z" />
    <glyph glyph-name="uniE2CF" unicode="&#xe2cf;" 
d="M100 500h200v-300h-200v300zM400 500h200v-300h-200v300zM100 800h200v-200h-200v200zM400 800h200v-200h-200v200z" />
    <glyph glyph-name="uniE2D0" unicode="&#xe2d0;" 
d="M100 100h200v-200h-200v200z" />
    <glyph glyph-name="uniE2D1" unicode="&#xe2d1;" 
d="M100 100h200v-200h-200v200zM100 800h200v-200h-200v200z" />
    <glyph glyph-name="uniE2D2" unicode="&#xe2d2;" 
d="M100 100h200v-200h-200v200zM400 800h200v-200h-200v200z" />
    <glyph glyph-name="uniE2D3" unicode="&#xe2d3;" 
d="M100 100h200v-200h-200v200zM100 800h200v-200h-200v200zM400 800h200v-200h-200v200z" />
    <glyph glyph-name="uniE2D4" unicode="&#xe2d4;" 
d="M100 100h200v-200h-200v200zM100 500h200v-300h-200v300z" />
    <glyph glyph-name="uniE2D5" unicode="&#xe2d5;" 
d="M100 100h200v-200h-200v200zM100 500h200v-300h-200v300zM100 800h200v-200h-200v200z" />
    <glyph glyph-name="uniE2D6" unicode="&#xe2d6;" 
d="M100 100h200v-200h-200v200zM100 500h200v-300h-200v300zM400 800h200v-200h-200v200z" />
    <glyph glyph-name="uniE2D7" unicode="&#xe2d7;" 
d="M100 100h200v-200h-200v200zM100 500h200v-300h-200v300zM100 800h200v-200h-200v200zM400 800h200v-200h-200v200z" />
    <glyph glyph-name="uniE2D8" unicode="&#xe2d8;" 
d="M100 100h200v-200h-200v200zM400 500h200v-300h-200v300z" />
    <glyph glyph-name="uniE2D9" unicode="&#xe2d9;" 
d="M100 100h200v-200h-200v200zM400 500h200v-300h-200v300zM100 800h200v-200h-200v200z" />
    <glyph glyph-name="uniE2DA" unicode="&#xe2da;" 
d="M100 100h200v-200h-200v200zM400 500h200v-300h-200v300zM400 800h200v-200h-200v200z" />
    <glyph glyph-name="uniE2DB" unicode="&#xe2db;" 
d="M100 100h200v-200h-200v200zM400 500h200v-300h-200v300zM100 800h200v-200h-200v200zM400 800h200v-200h-200v200z" />
    <glyph glyph-name="uniE2DC" unicode="&#xe2dc;" 
d="M100 100h200v-200h-200v200zM100 500h200v-300h-200v300zM400 500h200v-300h-200v300z" />
    <glyph glyph-name="uniE2DD" unicode="&#xe2dd;" 
d="M100 100h200v-200h-200v200zM100 500h200v-300h-200v300zM400 500h200v-300h-200v300zM100 800h200v-200h-200v200z" />
    <glyph glyph-name="uniE2DE" unicode="&#xe2de;" 
d="M100 100h200v-200h-200v200zM100 500h200v-300h-200v300zM400 500h200v-300h-200v300zM400 800h200v-200h-200v200z" />
    <glyph glyph-name="uniE2DF" unicode="&#xe2df;" 
d="M100 100h200v-200h-200v200zM100 500h200v-300h-200v300zM400 500h200v-300h-200v300zM100 800h200v-200h-200v200zM400 800h200v-200h-200v200z" />
    <glyph glyph-name="uniE2E0" unicode="&#xe2e0;" 
d="M400 100h200v-200h-200v200z" />
    <glyph glyph-name="uniE2E1" unicode="&#xe2e1;" 
d="M400 100h200v-200h-200v200zM100 800h200v-200h-200v200z" />
    <glyph glyph-name="uniE2E2" unicode="&#xe2e2;" 
d="M400 100h200v-200h-200v200zM400 800h200v-200h-200v200z" />
    <glyph glyph-name="uniE2E3" unicode="&#xe2e3;" 
d="M400 100h200v-200h-200v200zM100 800h200v-200h-200v200zM400 800h200v-200h-200v200z" />
    <glyph glyph-name="uniE2E4" unicode="&#xe2e4;" 
d="M400 100h200v-200h-200v200zM100 500h200v-300h-200v300z" />
    <glyph glyph-name="uniE2E5" unicode="&#xe2e5;" 
d="M400 100h200v-200h-200v200zM100 500h200v-300h-200v300zM100 800h200v-200h-200v200z" />
    <glyph glyph-name="uniE2E6" unicode="&#xe2e6;" 
d="M400 100h200v-200h-200v200zM100 500h200v-300h-200v300zM400 800h200v-200h-200v200z" />
    <glyph glyph-name="uniE2E7" unicode="&#xe2e7;" 
d="M400 100h200v-200h-200v200zM100 500h200v-300h-200v300zM100 800h200v-200h-200v200zM400 800h200v-200h-200v200z" />
    <glyph glyph-name="uniE2E8" unicode="&#xe2e8;" 
d="M400 100h200v-200h-200v200zM400 500h200v-300h-200v300z" />
    <glyph glyph-name="uniE2E9" unicode="&#xe2e9;" 
d="M400 100h200v-200h-200v200zM400 500h200v-300h-200v300zM100 800h200v-200h-200v200z" />
    <glyph glyph-name="uniE2EA" unicode="&#xe2ea;" 
d="M400 100h200v-200h-200v200zM400 500h200v-300h-200v300zM400 800h200v-200h-200v200z" />
    <glyph glyph-name="uniE2EB" unicode="&#xe2eb;" 
d="M400 100h200v-200h-200v200zM400 500h200v-300h-200v300zM100 800h200v-200h-200v200zM400 800h200v-200h-200v200z" />
    <glyph glyph-name="uniE2EC" unicode="&#xe2ec;" 
d="M400 100h200v-200h-200v200zM100 500h200v-300h-200v300zM400 500h200v-300h-200v300z" />
    <glyph glyph-name="uniE2ED" unicode="&#xe2ed;" 
d="M400 100h200v-200h-200v200zM100 500h200v-300h-200v300zM400 500h200v-300h-200v300zM100 800h200v-200h-200v200z" />
    <glyph glyph-name="uniE2EE" unicode="&#xe2ee;" 
d="M400 100h200v-200h-200v200zM100 500h200v-300h-200v300zM400 500h200v-300h-200v300zM400 800h200v-200h-200v200z" />
    <glyph glyph-name="uniE2EF" unicode="&#xe2ef;" 
d="M400 100h200v-200h-200v200zM100 500h200v-300h-200v300zM400 500h200v-300h-200v300zM100 800h200v-200h-200v200zM400 800h200v-200h-200v200z" />
    <glyph glyph-name="uniE2F0" unicode="&#xe2f0;" 
d="M400 100h200v-200h-200v200zM100 100h200v-200h-200v200z" />
    <glyph glyph-name="uniE2F1" unicode="&#xe2f1;" 
d="M400 100h200v-200h-200v200zM100 100h200v-200h-200v200zM100 800h200v-200h-200v200z" />
    <glyph glyph-name="uniE2F2" unicode="&#xe2f2;" 
d="M400 100h200v-200h-200v200zM100 100h200v-200h-200v200zM400 800h200v-200h-200v200z" />
    <glyph glyph-name="uniE2F3" unicode="&#xe2f3;" 
d="M400 100h200v-200h-200v200zM100 100h200v-200h-200v200zM100 800h200v-200h-200v200zM400 800h200v-200h-200v200z" />
    <glyph glyph-name="uniE2F4" unicode="&#xe2f4;" 
d="M400 100h200v-200h-200v200zM100 100h200v-200h-200v200zM100 500h200v-300h-200v300z" />
    <glyph glyph-name="uniE2F5" unicode="&#xe2f5;" 
d="M400 100h200v-200h-200v200zM100 100h200v-200h-200v200zM100 500h200v-300h-200v300zM100 800h200v-200h-200v200z" />
    <glyph glyph-name="uniE2F6" unicode="&#xe2f6;" 
d="M400 100h200v-200h-200v200zM100 100h200v-200h-200v200zM100 500h200v-300h-200v300zM400 800h200v-200h-200v200z" />
    <glyph glyph-name="uniE2F7" unicode="&#xe2f7;" 
d="M400 100h200v-200h-200v200zM100 100h200v-200h-200v200zM100 500h200v-300h-200v300zM100 800h200v-200h-200v200zM400 800h200v-200h-200v200z" />
    <glyph glyph-name="uniE2F8" unicode="&#xe2f8;" 
d="M400 100h200v-200h-200v200zM100 100h200v-200h-200v200zM400 500h200v-300h-200v300z" />
    <glyph glyph-name="uniE2F9" unicode="&#xe2f9;" 
d="M400 100h200v-200h-200v200zM100 100h200v-200h-200v200zM400 500h200v-300h-200v300zM100 800h200v-200h-200v200z" />
    <glyph glyph-name="uniE2FA" unicode="&#xe2fa;" 
d="M400 100h200v-200h-200v200zM100 100h200v-200h-200v200zM400 500h200v-300h-200v300zM400 800h200v-200h-200v200z" />
    <glyph glyph-name="uniE2FB" unicode="&#xe2fb;" 
d="M400 100h200v-200h-200v200zM100 100h200v-200h-200v200zM400 500h200v-300h-200v300zM100 800h200v-200h-200v200zM400 800h200v-200h-200v200z" />
    <glyph glyph-name="uniE2FC" unicode="&#xe2fc;" 
d="M400 100h200v-200h-200v200zM100 100h200v-200h-200v200zM100 500h200v-300h-200v300zM400 500h200v-300h-200v300z" />
    <glyph glyph-name="uniE2FD" unicode="&#xe2fd;" 
d="M400 100h200v-200h-200v200zM100 100h200v-200h-200v200zM100 500h200v-300h-200v300zM400 500h200v-300h-200v300zM100 800h200v-200h-200v200z" />
    <glyph glyph-name="uniE2FE" unicode="&#xe2fe;" 
d="M400 100h200v-200h-200v200zM100 100h200v-200h-200v200zM100 500h200v-300h-200v300zM400 500h200v-300h-200v300zM400 800h200v-200h-200v200z" />
    <glyph glyph-name="uniE2FF" unicode="&#xe2ff;" 
d="M400 100h200v-200h-200v200zM100 100h200v-200h-200v200zM100 500h200v-300h-200v300zM400 500h200v-300h-200v300zM100 800h200v-200h-200v200zM400 800h200v-200h-200v200z" />
    <glyph glyph-name="uniE300" unicode="&#xe300;" 
 />
    <glyph glyph-name="uniE301" unicode="&#xe301;" 
d="M100 805h200v-405h-200v405z" />
    <glyph glyph-name="uniE302" unicode="&#xe302;" 
d="M400 805h205v-405h-205v405z" />
    <glyph glyph-name="uniE303" unicode="&#xe303;" 
d="M100 805h200v-405h-200v405zM400 805h205v-405h-205v405z" />
    <glyph glyph-name="uniE304" unicode="&#xe304;" 
d="M100 200h200v-400h-200v400z" />
    <glyph glyph-name="uniE305" unicode="&#xe305;" 
d="M100 200h200v-400h-200v400zM100 805h200v-405h-200v405z" />
    <glyph glyph-name="uniE306" unicode="&#xe306;" 
d="M100 200h200v-400h-200v400zM400 805h205v-405h-205v405z" />
    <glyph glyph-name="uniE307" unicode="&#xe307;" 
d="M100 200h200v-400h-200v400zM100 805h200v-405h-200v405zM400 805h205v-405h-205v405z" />
    <glyph glyph-name="uniE308" unicode="&#xe308;" 
d="M400 200h205v-400h-205v400z" />
    <glyph glyph-name="uniE309" unicode="&#xe309;" 
d="M400 200h205v-400h-205v400zM100 805h200v-405h-200v405z" />
    <glyph glyph-name="uniE30A" unicode="&#xe30a;" 
d="M400 200h205v-400h-205v400zM400 805h205v-405h-205v405z" />
    <glyph glyph-name="uniE30B" unicode="&#xe30b;" 
d="M400 200h205v-400h-205v400zM100 805h200v-405h-200v405zM400 805h205v-405h-205v405z" />
    <glyph glyph-name="uniE30C" unicode="&#xe30c;" 
d="M100 200h200v-400h-200v400zM400 200h205v-400h-205v400z" />
    <glyph glyph-name="uniE30D" unicode="&#xe30d;" 
d="M100 200h200v-400h-200v400zM400 200h205v-400h-205v400zM100 805h200v-405h-200v405z" />
    <glyph glyph-name="uniE30E" unicode="&#xe30e;" 
d="M100 200h200v-400h-200v400zM400 200h205v-400h-205v400zM400 805h205v-405h-205v405z" />
    <glyph glyph-name="uniE30F" unicode="&#xe30f;" 
d="M100 200h200v-400h-200v400zM400 200h205v-400h-205v400zM100 805h200v-405h-200v405zM400 805h205v-405h-205v405z" />
    <glyph glyph-name="uniE310" unicode="&#xe310;" 
 />
    <glyph glyph-name="uniE311" unicode="&#xe311;" 
d="M100 805h200v-405h-200v405z" />
    <glyph glyph-name="uniE312" unicode="&#xe312;" 
d="M400 805h205v-405h-205v405z" />
    <glyph glyph-name="uniE313" unicode="&#xe313;" 
d="M100 805h200v-405h-200v405zM400 805h205v-405h-205v405z" />
    <glyph glyph-name="uniE314" unicode="&#xe314;" 
d="M100 200h200v-400h-200v400z" />
    <glyph glyph-name="uniE315" unicode="&#xe315;" 
d="M100 200h200v-400h-200v400zM100 805h200v-405h-200v405z" />
    <glyph glyph-name="uniE316" unicode="&#xe316;" 
d="M100 200h200v-400h-200v400zM400 805h205v-405h-205v405z" />
    <glyph glyph-name="uniE317" unicode="&#xe317;" 
d="M100 200h200v-400h-200v400zM100 805h200v-405h-200v405zM400 805h205v-405h-205v405z" />
    <glyph glyph-name="uniE318" unicode="&#xe318;" 
d="M400 200h205v-400h-205v400z" />
    <glyph glyph-name="uniE319" unicode="&#xe319;" 
d="M400 200h205v-400h-205v400zM100 805h200v-405h-200v405z" />
    <glyph glyph-name="uniE31A" unicode="&#xe31a;" 
d="M400 200h205v-400h-205v400zM400 805h205v-405h-205v405z" />
    <glyph glyph-name="uniE31B" unicode="&#xe31b;" 
d="M400 200h205v-400h-205v400zM100 805h200v-405h-200v405zM400 805h205v-405h-205v405z" />
    <glyph glyph-name="uniE31C" unicode="&#xe31c;" 
d="M100 200h200v-400h-200v400zM400 200h205v-400h-205v400z" />
    <glyph glyph-name="uniE31D" unicode="&#xe31d;" 
d="M100 200h200v-400h-200v400zM400 200h205v-400h-205v400zM100 805h200v-405h-200v405z" />
    <glyph glyph-name="uniE31E" unicode="&#xe31e;" 
d="M100 200h200v-400h-200v400zM400 200h205v-400h-205v400zM400 805h205v-405h-205v405z" />
    <glyph glyph-name="uniE31F" unicode="&#xe31f;" 
d="M100 200h200v-400h-200v400zM400 200h205v-400h-205v400zM100 805h200v-405h-200v405zM400 805h205v-405h-205v405z" />
    <glyph glyph-name="uniE320" unicode="&#xe320;" 
 />
    <glyph glyph-name="uniE321" unicode="&#xe321;" 
d="M100 805h200v-405h-200v405z" />
    <glyph glyph-name="uniE322" unicode="&#xe322;" 
d="M400 805h205v-405h-205v405z" />
    <glyph glyph-name="uniE323" unicode="&#xe323;" 
d="M100 805h200v-405h-200v405zM400 805h205v-405h-205v405z" />
    <glyph glyph-name="uniE324" unicode="&#xe324;" 
d="M100 200h200v-400h-200v400z" />
    <glyph glyph-name="uniE325" unicode="&#xe325;" 
d="M100 200h200v-400h-200v400zM100 805h200v-405h-200v405z" />
    <glyph glyph-name="uniE326" unicode="&#xe326;" 
d="M100 200h200v-400h-200v400zM400 805h205v-405h-205v405z" />
    <glyph glyph-name="uniE327" unicode="&#xe327;" 
d="M100 200h200v-400h-200v400zM100 805h200v-405h-200v405zM400 805h205v-405h-205v405z" />
    <glyph glyph-name="uniE328" unicode="&#xe328;" 
d="M400 200h205v-400h-205v400z" />
    <glyph glyph-name="uniE329" unicode="&#xe329;" 
d="M400 200h205v-400h-205v400zM100 805h200v-405h-200v405z" />
    <glyph glyph-name="uniE32A" unicode="&#xe32a;" 
d="M400 200h205v-400h-205v400zM400 805h205v-405h-205v405z" />
    <glyph glyph-name="uniE32B" unicode="&#xe32b;" 
d="M400 200h205v-400h-205v400zM100 805h200v-405h-200v405zM400 805h205v-405h-205v405z" />
    <glyph glyph-name="uniE32C" unicode="&#xe32c;" 
d="M100 200h200v-400h-200v400zM400 200h205v-400h-205v400z" />
    <glyph glyph-name="uniE32D" unicode="&#xe32d;" 
d="M100 200h200v-400h-200v400zM400 200h205v-400h-205v400zM100 805h200v-405h-200v405z" />
    <glyph glyph-name="uniE32E" unicode="&#xe32e;" 
d="M100 200h200v-400h-200v400zM400 200h205v-400h-205v400zM400 805h205v-405h-205v405z" />
    <glyph glyph-name="uniE32F" unicode="&#xe32f;" 
d="M100 200h200v-400h-200v400zM400 200h205v-400h-205v400zM100 805h200v-405h-200v405zM400 805h205v-405h-205v405z" />
    <glyph glyph-name="uniE330" unicode="&#xe330;" 
 />
    <glyph glyph-name="uniE331" unicode="&#xe331;" 
d="M100 805h200v-405h-200v405z" />
    <glyph glyph-name="uniE332" unicode="&#xe332;" 
d="M400 805h205v-405h-205v405z" />
    <glyph glyph-name="uniE333" unicode="&#xe333;" 
d="M100 805h200v-405h-200v405zM400 805h205v-405h-205v405z" />
    <glyph glyph-name="uniE334" unicode="&#xe334;" 
d="M100 200h200v-400h-200v400z" />
    <glyph glyph-name="uniE335" unicode="&#xe335;" 
d="M100 200h200v-400h-200v400zM100 805h200v-405h-200v405z" />
    <glyph glyph-name="uniE336" unicode="&#xe336;" 
d="M100 200h200v-400h-200v400zM400 805h205v-405h-205v405z" />
    <glyph glyph-name="uniE337" unicode="&#xe337;" 
d="M100 200h200v-400h-200v400zM100 805h200v-405h-200v405zM400 805h205v-405h-205v405z" />
    <glyph glyph-name="uniE338" unicode="&#xe338;" 
d="M400 200h205v-400h-205v400z" />
    <glyph glyph-name="uniE339" unicode="&#xe339;" 
d="M400 200h205v-400h-205v400zM100 805h200v-405h-200v405z" />
    <glyph glyph-name="uniE33A" unicode="&#xe33a;" 
d="M400 200h205v-400h-205v400zM400 805h205v-405h-205v405z" />
    <glyph glyph-name="uniE33B" unicode="&#xe33b;" 
d="M400 200h205v-400h-205v400zM100 805h200v-405h-200v405zM400 805h205v-405h-205v405z" />
    <glyph glyph-name="uniE33C" unicode="&#xe33c;" 
d="M100 200h200v-400h-200v400zM400 200h205v-400h-205v400z" />
    <glyph glyph-name="uniE33D" unicode="&#xe33d;" 
d="M100 200h200v-400h-200v400zM400 200h205v-400h-205v400zM100 805h200v-405h-200v405z" />
    <glyph glyph-name="uniE33E" unicode="&#xe33e;" 
d="M100 200h200v-400h-200v400zM400 200h205v-400h-205v400zM400 805h205v-405h-205v405z" />
    <glyph glyph-name="uniE33F" unicode="&#xe33f;" 
d="M100 200h200v-400h-200v400zM400 200h205v-400h-205v400zM100 805h200v-405h-200v405zM400 805h205v-405h-205v405z" />
    <glyph glyph-name="uniE340" unicode="&#xe340;" 
 />
    <glyph glyph-name="uniE341" unicode="&#xe341;" 
 />
    <glyph glyph-name="uniE342" unicode="&#xe342;" 
 />
    <glyph glyph-name="uniE343" unicode="&#xe343;" 
 />
    <glyph glyph-name="uniE344" unicode="&#xe344;" 
d="M100 805h200v-205h-200v205z" />
    <glyph glyph-name="uniE345" unicode="&#xe345;" 
d="M100 805h200v-205h-200v205z" />
    <glyph glyph-name="uniE346" unicode="&#xe346;" 
d="M100 805h200v-205h-200v205z" />
    <glyph glyph-name="uniE347" unicode="&#xe347;" 
d="M100 805h200v-205h-200v205z" />
    <glyph glyph-name="uniE348" unicode="&#xe348;" 
d="M400 805h205v-205h-205v205z" />
    <glyph glyph-name="uniE349" unicode="&#xe349;" 
d="M400 805h205v-205h-205v205z" />
    <glyph glyph-name="uniE34A" unicode="&#xe34a;" 
d="M400 805h205v-205h-205v205z" />
    <glyph glyph-name="uniE34B" unicode="&#xe34b;" 
d="M400 805h205v-205h-205v205z" />
    <glyph glyph-name="uniE34C" unicode="&#xe34c;" 
d="M100 805h200v-205h-200v205zM400 805h205v-205h-205v205z" />
    <glyph glyph-name="uniE34D" unicode="&#xe34d;" 
d="M100 805h200v-205h-200v205zM400 805h205v-205h-205v205z" />
    <glyph glyph-name="uniE34E" unicode="&#xe34e;" 
d="M100 805h200v-205h-200v205zM400 805h205v-205h-205v205z" />
    <glyph glyph-name="uniE34F" unicode="&#xe34f;" 
d="M100 805h200v-205h-200v205zM400 805h205v-205h-205v205z" />
    <glyph glyph-name="uniE350" unicode="&#xe350;" 
d="M100 400h200v-400h-200v400z" />
    <glyph glyph-name="uniE351" unicode="&#xe351;" 
d="M100 400h200v-400h-200v400z" />
    <glyph glyph-name="uniE352" unicode="&#xe352;" 
d="M100 400h200v-400h-200v400z" />
    <glyph glyph-name="uniE353" unicode="&#xe353;" 
d="M100 400h200v-400h-200v400z" />
    <glyph glyph-name="uniE354" unicode="&#xe354;" 
d="M100 400h200v-400h-200v400zM100 805h200v-205h-200v205z" />
    <glyph glyph-name="uniE355" unicode="&#xe355;" 
d="M100 400h200v-400h-200v400zM100 805h200v-205h-200v205z" />
    <glyph glyph-name="uniE356" unicode="&#xe356;" 
d="M100 400h200v-400h-200v400zM100 805h200v-205h-200v205z" />
    <glyph glyph-name="uniE357" unicode="&#xe357;" 
d="M100 400h200v-400h-200v400zM100 805h200v-205h-200v205z" />
    <glyph glyph-name="uniE358" unicode="&#xe358;" 
d="M100 400h200v-400h-200v400zM400 805h205v-205h-205v205z" />
    <glyph glyph-name="uniE359" unicode="&#xe359;" 
d="M100 400h200v-400h-200v400zM400 805h205v-205h-205v205z" />
    <glyph glyph-name="uniE35A" unicode="&#xe35a;" 
d="M100 400h200v-400h-200v400zM400 805h205v-205h-205v205z" />
    <glyph glyph-name="uniE35B" unicode="&#xe35b;" 
d="M100 400h200v-400h-200v400zM400 805h205v-205h-205v205z" />
    <glyph glyph-name="uniE35C" unicode="&#xe35c;" 
d="M100 400h200v-400h-200v400zM100 805h200v-205h-200v205zM400 805h205v-205h-205v205z" />
    <glyph glyph-name="uniE35D" unicode="&#xe35d;" 
d="M100 400h200v-400h-200v400zM100 805h200v-205h-200v205zM400 805h205v-205h-205v205z" />
    <glyph glyph-name="uniE35E" unicode="&#xe35e;" 
d="M100 400h200v-400h-200v400zM100 805h200v-205h-200v205zM400 805h205v-205h-205v205z" />
    <glyph glyph-name="uniE35F" unicode="&#xe35f;" 
d="M100 400h200v-400h-200v400zM100 805h200v-205h-200v205zM400 805h205v-205h-205v205z" />
    <glyph glyph-name="uniE360" unicode="&#xe360;" 
d="M400 400h205v-400h-205v400z" />
    <glyph glyph-name="uniE361" unicode="&#xe361;" 
 />
    <glyph glyph-name="uniE362" unicode="&#xe362;" 
 />
    <glyph glyph-name="uniE363" unicode="&#xe363;" 
 />
    <glyph glyph-name="uniE364" unicode="&#xe364;" 
d="M400 400h205v-400h-205v400zM100 805h200v-205h-200v205z" />
    <glyph glyph-name="uniE365" unicode="&#xe365;" 
d="M400 400h205v-400h-205v400zM100 805h200v-205h-200v205z" />
    <glyph glyph-name="uniE366" unicode="&#xe366;" 
d="M400 400h205v-400h-205v400zM100 805h200v-205h-200v205z" />
    <glyph glyph-name="uniE367" unicode="&#xe367;" 
d="M400 400h205v-400h-205v400zM100 805h200v-205h-200v205z" />
    <glyph glyph-name="uniE368" unicode="&#xe368;" 
d="M400 400h205v-400h-205v400zM400 805h205v-205h-205v205z" />
    <glyph glyph-name="uniE369" unicode="&#xe369;" 
d="M400 400h205v-400h-205v400zM400 805h205v-205h-205v205z" />
    <glyph glyph-name="uniE36A" unicode="&#xe36a;" 
d="M400 400h205v-400h-205v400zM400 805h205v-205h-205v205z" />
    <glyph glyph-name="uniE36B" unicode="&#xe36b;" 
d="M400 400h205v-400h-205v400zM400 805h205v-205h-205v205z" />
    <glyph glyph-name="uniE36C" unicode="&#xe36c;" 
d="M400 400h205v-400h-205v400zM100 805h200v-205h-200v205zM400 805h205v-205h-205v205z" />
    <glyph glyph-name="uniE36D" unicode="&#xe36d;" 
d="M400 400h205v-400h-205v400zM100 805h200v-205h-200v205zM400 805h205v-205h-205v205z" />
    <glyph glyph-name="uniE36E" unicode="&#xe36e;" 
d="M400 400h205v-400h-205v400zM100 805h200v-205h-200v205zM400 805h205v-205h-205v205z" />
    <glyph glyph-name="uniE36F" unicode="&#xe36f;" 
d="M400 400h205v-400h-205v400zM100 805h200v-205h-200v205zM400 805h205v-205h-205v205z" />
    <glyph glyph-name="uniE370" unicode="&#xe370;" 
d="M400 400h205v-400h-205v400zM100 400h200v-400h-200v400z" />
    <glyph glyph-name="uniE371" unicode="&#xe371;" 
d="M400 400h205v-400h-205v400zM100 400h200v-400h-200v400z" />
    <glyph glyph-name="uniE372" unicode="&#xe372;" 
d="M400 400h205v-400h-205v400zM100 400h200v-400h-200v400z" />
    <glyph glyph-name="uniE373" unicode="&#xe373;" 
d="M400 400h205v-400h-205v400zM100 400h200v-400h-200v400z" />
    <glyph glyph-name="uniE374" unicode="&#xe374;" 
d="M400 400h205v-400h-205v400zM100 400h200v-400h-200v400zM100 805h200v-205h-200v205z" />
    <glyph glyph-name="uniE375" unicode="&#xe375;" 
d="M400 400h205v-400h-205v400zM100 400h200v-400h-200v400zM100 805h200v-205h-200v205z" />
    <glyph glyph-name="uniE376" unicode="&#xe376;" 
d="M400 400h205v-400h-205v400zM100 400h200v-400h-200v400zM100 805h200v-205h-200v205z" />
    <glyph glyph-name="uniE377" unicode="&#xe377;" 
d="M400 400h205v-400h-205v400zM100 400h200v-400h-200v400zM100 805h200v-205h-200v205z" />
    <glyph glyph-name="uniE378" unicode="&#xe378;" 
d="M400 400h205v-400h-205v400zM100 400h200v-400h-200v400zM400 805h205v-205h-205v205z" />
    <glyph glyph-name="uniE379" unicode="&#xe379;" 
d="M400 400h205v-400h-205v400zM100 400h200v-400h-200v400zM400 805h205v-205h-205v205z" />
    <glyph glyph-name="uniE37A" unicode="&#xe37a;" 
d="M400 400h205v-400h-205v400zM100 400h200v-400h-200v400zM400 805h205v-205h-205v205z" />
    <glyph glyph-name="uniE37B" unicode="&#xe37b;" 
d="M400 400h205v-400h-205v400zM100 400h200v-400h-200v400zM400 805h205v-205h-205v205z" />
    <glyph glyph-name="uniE37C" unicode="&#xe37c;" 
d="M400 400h205v-400h-205v400zM100 400h200v-400h-200v400zM100 805h200v-205h-200v205zM400 805h205v-205h-205v205z" />
    <glyph glyph-name="uniE37D" unicode="&#xe37d;" 
d="M400 400h205v-400h-205v400zM100 400h200v-400h-200v400zM100 805h200v-205h-200v205zM400 805h205v-205h-205v205z" />
    <glyph glyph-name="uniE37E" unicode="&#xe37e;" 
d="M400 400h205v-400h-205v400zM100 400h200v-400h-200v400zM100 805h200v-205h-200v205zM400 805h205v-205h-205v205z" />
    <glyph glyph-name="uniE37F" unicode="&#xe37f;" 
d="M400 400h205v-400h-205v400zM100 400h200v-400h-200v400zM100 805h200v-205h-200v205zM400 805h205v-205h-205v205z" />
    <glyph glyph-name="DEL" 
d="M100 700h500v-700h-500v700z" />
  </font>
</defs>
</svg>
