<svg height="41" viewBox="0 0 343 41" width="343" xmlns="http://www.w3.org/2000/svg"><g fill="none" fill-rule="evenodd"><path d="m141 0h202v41h-202z" fill="#0b0bfb"/><path d="m145 16v13h-7v-13h3v-5h-3v-11h7v11h5v-11h7v11h-3v5h3v13h-7v-13zm-41 13h-12v-5h12v-8h-5-7v-16h7v11h5v-11h7v29zm70-22v22h-7v-22h-6v-7h19v7zm-46 0v22h-7v-22h-6v-7h19v7zm-46 0v22h-7v-22h-6v-7h19v7zm-29 17h5v-17h-5zm0 5h-7v-29h7 12v7 22h-7zm-46-22v6h12v5h-12v11h-7v-22-7h19v7zm23 17h5v-17h-5zm0 5h-7v-29h7 12v7 22h-7z" fill="#fcfb38" transform="translate(152 5)"/><g fill="#080b16"><path d="m159 12h12v3h-12z"/><path d="m182 12h5v3h-5z"/><path d="m205 12h5v3h-5z"/><path d="m221 12h6v3h-6z"/><path d="m234 12h6v3h-6z"/><path d="m244 21h12v3h-12z"/><path d="m267 12h6v3h-6z"/><path d="m273 34h7v3h-7z"/><path d="m280 12h6v3h-6z"/><path d="m290 16h3v3h-3z"/><path d="m306 16h3v3h-3z"/><path d="m313 12h6v3h-6z"/><path d="m319 34h7v3h-7z"/><path d="m326 12h6v3h-6z"/><path d="m297 21h5v3h-5z"/><path d="m290 34h7v3h-7z"/><path d="m302 34h7v3h-7z"/><path d="m244 34h19v3h-19z"/><path d="m227 34h7v3h-7z"/><path d="m175 34h19v3h-19z"/><path d="m198 34h19v3h-19z"/><path d="m159 23h12v3h-12z"/><path d="m152 34h7v3h-7z"/></g><path d="m0 0h39v41h-39z" fill="#fff"/><path d="m8 11h9v-11h8v29h-8v-11h-9v11h-8v-29h8z" fill="#080b16" transform="translate(7 6)"/><path d="m94 0h39v41h-39z" fill="#fff"/><path d="m8 29h-8v-29h8 17v7h-17v15h17v7z" fill="#080b16" transform="translate(101 6)"/><path d="m47 0h39v41h-39z" fill="#fff"/><g fill="#080b16" transform="translate(54 6)"><path d="m21 12v5h4v12h-8-9-8v-29h8 9 8v12zm-4 0v-5h-9v5zm-9 5v5h9v-5z"/><path d="m17 0h7v12h-7z"/></g></g></svg>